<svg width="355" height="356" viewBox="0 0 355 356" fill="none" xmlns="http://www.w3.org/2000/svg">
<path d="M232.916 120.9C267.677 131.296 285.256 138.134 313.102 152.022" stroke="black" stroke-width="3"/>
<path d="M146.946 313.033C130.72 279.994 123.751 262.326 115.259 233.124" stroke="black" stroke-width="3"/>
<path d="M199.066 35.3802C198.182 35.7126 197.298 36.045 196.415 36.3774C197.033 37.7096 197.708 39.174 198.36 40.5952C209.968 66.1198 221.512 91.7625 231.028 117.852C231.533 119.273 232.055 120.784 232.522 122.187C233.455 121.978 234.388 121.768 235.32 121.559C234.845 120.13 234.315 118.598 233.804 117.16C224.193 90.817 212.655 65.205 201.019 39.6146C200.365 38.189 199.691 36.7253 199.066 35.3802Z" fill="black"/>
<path d="M116.264 234.096C81.5888 223.229 61.264 216.474 33.5653 202.219" stroke="black" stroke-width="3"/>
<path d="M182.975 157.292C182.911 157.465 182.81 157.545 182.644 157.594C182.443 157.652 182.162 157.654 181.792 157.616C181.612 157.598 181.426 157.571 181.231 157.543C181.039 157.516 180.837 157.488 180.641 157.467C167.16 156.048 153.902 156.275 140.763 157.28C105.092 160.01 72.0785 169.347 41.683 185.168C41.4506 185.289 41.1047 185.397 40.7855 185.437C40.759 185.44 40.7331 185.44 40.7082 185.443C40.8849 185.107 41.1366 184.63 41.457 184.031C42.1351 182.764 43.1187 180.949 44.341 178.761C46.7861 174.382 50.1843 168.509 53.997 162.525C57.8112 156.538 62.0329 150.451 66.1258 145.643C68.1722 143.239 70.1789 141.164 72.0782 139.582C73.9839 137.994 75.7495 136.93 77.3149 136.507L77.3211 136.507L78.7743 136.097C109.311 127.601 140.973 124.495 173.793 126.156C174.8 126.207 175.418 126.39 175.85 126.737C176.282 127.083 176.607 127.657 176.876 128.674C179.269 137.75 181.178 146.863 182.954 156.004C183.088 156.689 183.054 157.079 182.975 157.292Z" fill="black" stroke="black"/>
<path d="M229.633 182.503C229.527 182.577 229.352 182.653 229.057 182.695C219.365 184.074 209.559 184.926 199.628 185.209C199.618 185.206 199.6 185.2 199.572 185.189C199.534 185.173 199.504 185.159 199.448 185.135C199.441 185.132 199.434 185.13 199.427 185.127C199.187 184.777 199.082 184.405 199.037 183.996C199.013 183.767 199.007 183.531 199.005 183.28C199.003 183.035 199.006 182.763 198.995 182.501C197.921 156.869 192.373 131.547 183.797 106.43C181.726 100.365 179.536 94.3276 177.022 88.3673C176.485 87.0933 176.475 86.0236 176.833 84.7716C180.174 73.0964 184.956 62.1275 189.816 51.1569C189.893 50.9826 189.989 50.7179 190.049 50.5729C190.123 50.3932 190.2 50.2388 190.3 50.1025C190.448 49.9011 190.676 49.7002 191.118 49.5648C208.743 83.0851 220.64 117.857 226.627 154.098C228.063 163.177 229.181 172.077 229.874 180.969C229.921 181.563 229.938 181.956 229.836 182.232C229.793 182.347 229.731 182.433 229.633 182.503Z" fill="black" stroke="black"/>
<path d="M171.752 200.536C171.816 200.363 171.917 200.283 172.083 200.234C172.284 200.176 172.565 200.173 172.935 200.211C173.114 200.23 173.301 200.256 173.496 200.284C173.688 200.311 173.89 200.339 174.086 200.359C187.567 201.771 200.823 201.536 213.961 200.523C249.627 197.773 282.633 188.416 313.017 172.577C313.249 172.455 313.595 172.347 313.914 172.307C313.941 172.304 313.967 172.304 313.991 172.302C313.815 172.637 313.564 173.115 313.244 173.714C312.566 174.981 311.584 176.796 310.363 178.986C307.92 183.366 304.526 189.242 300.717 195.229C296.907 201.218 292.689 207.308 288.599 212.119C286.554 214.525 284.549 216.601 282.65 218.184C280.746 219.773 278.981 220.838 277.416 221.262L277.41 221.262L275.957 221.673C245.427 230.187 213.77 233.312 180.951 231.67C179.945 231.619 179.326 231.436 178.894 231.09C178.462 230.744 178.137 230.17 177.868 229.152C175.469 220.077 173.555 210.965 171.773 201.824C171.64 201.139 171.673 200.749 171.752 200.536Z" fill="black" stroke="black"/>
<path d="M163.424 307.851C151.235 285.414 141.998 262.211 135.248 238.106C129.774 217.926 126.124 197.849 124.425 177.676C124.325 176.49 124.456 175.849 124.762 175.459C125.066 175.074 125.642 174.808 126.796 174.661C135.447 173.555 144.176 172.837 152.969 172.349C154.007 172.292 154.489 172.447 154.747 172.696C155.012 172.953 155.176 173.439 155.216 174.427C156.087 195.963 160.174 217.376 166.419 238.677C169.309 248.533 172.606 258.32 176.726 267.911C177.629 270.016 177.75 271.768 177.148 273.797C173.804 285.064 169.21 295.707 164.473 306.317C164.237 306.846 163.928 307.335 163.424 307.851Z" fill="black" stroke="black"/>
<path d="M157.634 110.12C157.273 110.408 156.7 110.557 155.705 110.529C146.368 110.267 137.162 110.783 128.023 111.602C127.815 111.621 127.594 111.66 127.418 111.685C127.23 111.713 127.056 111.731 126.876 111.727C126.592 111.722 126.261 111.658 125.841 111.43C128.701 91.167 134.33 72.702 141.304 53.5342C141.347 53.4298 141.486 53.2476 141.814 53.0002C142.134 52.7587 142.581 52.4932 143.146 52.2088C144.277 51.6408 145.829 51.0243 147.67 50.3833C151.349 49.1023 156.126 47.7448 160.868 46.502C165.608 45.2599 170.304 44.1351 173.815 43.3211C175.57 42.9142 177.028 42.5843 178.048 42.3568C178.558 42.2431 178.958 42.1554 179.23 42.0955C179.313 42.0773 179.385 42.0621 179.444 42.0492C179.442 42.0546 179.441 42.0603 179.44 42.0658C179.345 42.4631 179.111 42.9851 178.958 43.3156C169.454 63.8579 161.948 85.2792 158.39 108.396C158.245 109.337 157.99 109.837 157.634 110.12Z" fill="black" stroke="black"/>
<path d="M196.843 247.747C197.2 247.454 197.769 247.295 198.763 247.308C208.083 247.43 217.261 246.774 226.368 245.816C226.575 245.794 226.796 245.752 226.971 245.724C227.158 245.694 227.331 245.672 227.51 245.673C227.794 245.674 228.125 245.733 228.548 245.956C226.005 266.236 220.751 280.226 214.076 299.558C214.033 299.675 213.886 299.882 213.55 300.177C213.228 300.459 212.78 300.782 212.217 301.138C211.09 301.851 209.544 302.672 207.712 303.559C204.05 305.332 199.293 307.343 194.57 309.239C189.849 311.133 185.171 312.909 181.672 314.212C179.924 314.863 178.47 315.396 177.454 315.766C176.946 315.951 176.547 316.095 176.275 316.193C176.219 316.213 176.168 316.231 176.123 316.247C176.214 315.849 176.436 315.332 176.582 315.002C185.753 294.277 192.917 272.701 196.116 249.486C196.246 248.541 196.493 248.036 196.843 247.747Z" fill="black" stroke="black"/>
<path d="M303.74 160.636C298.704 163.488 293.904 165.515 289.013 167.809L289.013 167.808C282.255 170.956 275.427 173.57 268.454 175.92C267.384 176.281 266.447 176.313 265.32 175.887C258.732 173.396 252.08 171.195 245.373 169.277C244.754 169.1 244.353 168.895 244.086 168.622C243.828 168.36 243.647 167.984 243.573 167.363C242.386 157.389 240.666 147.433 238.318 137.503C238.283 137.357 238.28 137.191 238.298 136.916C238.306 136.789 238.319 136.638 238.332 136.465C260.536 142.452 282.124 150.086 303.74 160.636Z" fill="black" stroke="black"/>
<path d="M115.954 221.133C93.6136 215.205 72.0127 207.39 50.6921 197.079C52.0696 195.758 53.627 195.286 55.186 194.531C64.4705 190.032 73.8684 185.778 83.7134 182.351C86.264 181.462 88.5391 181.273 91.1411 182.556C91.9998 182.98 92.98 183.237 93.9573 183.589L93.9739 183.595L101.378 185.98C103.818 186.763 106.24 187.53 108.666 188.273C109.327 188.475 109.782 188.66 110.101 188.94C110.396 189.198 110.617 189.578 110.699 190.274C111.879 200.258 113.626 210.222 115.892 220.164C115.924 220.303 115.935 220.455 115.942 220.718C115.946 220.835 115.95 220.972 115.954 221.133Z" fill="black" stroke="black"/>
</svg>
