<svg width="936" height="936" viewBox="0 0 936 936" fill="none" xmlns="http://www.w3.org/2000/svg">
<mask id="path-1-outside-1_2596_745" maskUnits="userSpaceOnUse" x="267.408" y="402.061" width="517" height="121" fill="black">
<rect fill="white" x="267.408" y="402.061" width="517" height="121"/>
<path d="M269.059 520.061L269.059 407.334L308.469 407.334C316.322 407.334 322.798 408.692 327.899 411.407C333 414.086 336.798 417.7 339.293 422.251C341.788 426.764 343.036 431.773 343.036 437.277C343.036 442.121 342.173 446.121 340.449 449.277C338.761 452.432 336.522 454.928 333.734 456.762C330.981 458.597 327.991 459.955 324.762 460.835L324.762 461.936C328.211 462.157 331.679 463.367 335.165 465.569C338.651 467.771 341.568 470.927 343.916 475.036C346.265 479.146 347.439 484.174 347.439 490.118C347.439 495.769 346.155 500.851 343.586 505.365C341.018 509.878 336.963 513.456 331.422 516.098C325.881 518.74 318.67 520.061 309.79 520.061L269.059 520.061ZM282.709 507.952L309.79 507.952C318.707 507.952 325.037 506.227 328.78 502.778C332.559 499.292 334.449 495.072 334.449 490.118C334.449 486.302 333.477 482.779 331.532 479.55C329.587 476.284 326.817 473.679 323.22 471.734C319.624 469.752 315.368 468.762 310.451 468.762L282.709 468.762L282.709 507.952ZM282.709 456.872L308.029 456.872C312.139 456.872 315.845 456.065 319.147 454.451C322.487 452.836 325.129 450.561 327.073 447.625C329.055 444.69 330.046 441.24 330.046 437.277C330.046 432.323 328.321 428.122 324.872 424.672C321.422 421.186 315.955 419.443 308.469 419.443L282.709 419.443L282.709 456.872ZM403.555 521.823C395.409 521.823 388.382 520.025 382.474 516.429C376.603 512.796 372.071 507.732 368.878 501.237C365.723 494.705 364.145 487.109 364.145 478.449C364.145 469.789 365.723 462.157 368.878 455.551C372.071 448.91 376.511 443.736 382.199 440.029C387.923 436.286 394.602 434.415 402.234 434.415C406.638 434.415 410.986 435.149 415.279 436.617C419.573 438.085 423.481 440.47 427.003 443.772C430.526 447.038 433.333 451.368 435.425 456.762C437.516 462.157 438.562 468.798 438.562 476.688L438.562 482.192L373.392 482.192L373.392 470.963L425.352 470.963C425.352 466.193 424.398 461.936 422.49 458.193C420.618 454.451 417.94 451.497 414.454 449.332C411.004 447.167 406.931 446.084 402.234 446.084C397.06 446.084 392.583 447.368 388.804 449.937C385.061 452.469 382.18 455.772 380.162 459.845C378.144 463.918 377.135 468.285 377.135 472.945L377.135 480.431C377.135 486.816 378.236 492.228 380.437 496.668C382.676 501.072 385.776 504.429 389.739 506.741C393.703 509.016 398.308 510.154 403.555 510.154C406.968 510.154 410.05 509.677 412.802 508.723C415.591 507.732 417.995 506.264 420.013 504.319C422.031 502.338 423.591 499.879 424.692 496.943L437.241 500.466C435.92 504.723 433.7 508.466 430.581 511.695C427.462 514.887 423.609 517.383 419.022 519.181C414.435 520.942 409.28 521.823 403.555 521.823ZM483.202 522.043C477.844 522.043 472.982 521.034 468.616 519.016C464.249 516.961 460.781 514.007 458.212 510.154C455.644 506.264 454.359 501.567 454.359 496.063C454.359 491.219 455.314 487.293 457.222 484.284C459.13 481.238 461.68 478.853 464.873 477.128C468.065 475.403 471.588 474.119 475.441 473.275C479.33 472.394 483.239 471.697 487.165 471.183C492.302 470.523 496.467 470.028 499.66 469.697C502.889 469.33 505.237 468.725 506.705 467.881C508.21 467.037 508.962 465.569 508.962 463.478L508.962 463.037C508.962 457.606 507.476 453.386 504.503 450.377C501.568 447.368 497.109 445.864 491.128 445.864C484.926 445.864 480.064 447.222 476.542 449.937C473.019 452.652 470.542 455.551 469.111 458.634L456.781 454.23C458.983 449.093 461.919 445.093 465.588 442.231C469.294 439.332 473.331 437.314 477.698 436.176C482.101 435.002 486.431 434.415 490.688 434.415C493.403 434.415 496.522 434.745 500.045 435.406C503.604 436.03 507.035 437.332 510.338 439.314C513.677 441.295 516.448 444.286 518.649 448.286C520.851 452.286 521.952 457.643 521.952 464.358L521.952 520.061L508.962 520.061L508.962 508.612L508.301 508.612C507.421 510.447 505.953 512.41 503.898 514.502C501.843 516.594 499.109 518.373 495.696 519.841C492.284 521.309 488.119 522.043 483.202 522.043ZM485.183 510.374C490.321 510.374 494.651 509.365 498.173 507.346C501.733 505.328 504.412 502.723 506.21 499.53C508.044 496.338 508.962 492.98 508.962 489.458L508.962 477.568C508.411 478.229 507.2 478.834 505.329 479.385C503.494 479.899 501.366 480.357 498.944 480.761C496.559 481.128 494.229 481.458 491.954 481.752C489.715 482.009 487.899 482.229 486.504 482.412C483.128 482.853 479.973 483.568 477.037 484.559C474.138 485.513 471.79 486.962 469.992 488.907C468.23 490.815 467.35 493.421 467.35 496.723C467.35 501.237 469.019 504.649 472.358 506.961C475.734 509.236 480.009 510.374 485.183 510.374ZM545.661 520.061L545.661 435.516L558.211 435.516L558.211 448.726L559.312 448.726C561.073 444.213 563.917 440.708 567.844 438.213C571.77 435.681 576.485 434.415 581.99 434.415C587.567 434.415 592.209 435.681 595.915 438.213C599.658 440.708 602.575 444.213 604.667 448.726L605.548 448.726C607.713 444.359 610.96 440.892 615.29 438.323C619.62 435.718 624.813 434.415 630.867 434.415C638.427 434.415 644.61 436.782 649.417 441.516C654.224 446.212 656.627 453.533 656.627 463.478L656.627 520.061L643.637 520.061L643.637 463.478C643.637 457.239 641.931 452.781 638.518 450.102C635.106 447.423 631.088 446.084 626.464 446.084C620.519 446.084 615.914 447.882 612.648 451.478C609.382 455.038 607.749 459.551 607.749 465.019L607.749 520.061L594.539 520.061L594.539 462.157C594.539 457.349 592.98 453.478 589.861 450.543C586.742 447.57 582.723 446.084 577.806 446.084C574.43 446.084 571.275 446.983 568.339 448.781C565.44 450.579 563.092 453.074 561.294 456.267C559.532 459.423 558.651 463.074 558.651 467.22L558.651 520.061L545.661 520.061ZM680.378 520.061L680.378 435.516L693.368 435.516L693.368 520.061L680.378 520.061ZM686.983 421.425C684.451 421.425 682.268 420.563 680.433 418.838C678.635 417.113 677.736 415.04 677.736 412.618C677.736 410.196 678.635 408.123 680.433 406.398C682.268 404.674 684.451 403.811 686.983 403.811C689.515 403.811 691.68 404.674 693.478 406.398C695.313 408.123 696.23 410.196 696.23 412.618C696.23 415.04 695.313 417.113 693.478 418.838C691.68 420.563 689.515 421.425 686.983 421.425ZM726.848 435.516L747.104 470.083L767.359 435.516L782.331 435.516L755.03 477.789L782.331 520.061L767.359 520.061L747.104 487.256L726.848 520.061L711.876 520.061L738.737 477.789L711.876 435.516L726.848 435.516Z"/>
</mask>
<path d="M269.059 520.061L269.059 407.334L308.469 407.334C316.322 407.334 322.798 408.692 327.899 411.407C333 414.086 336.798 417.7 339.293 422.251C341.788 426.764 343.036 431.773 343.036 437.277C343.036 442.121 342.173 446.121 340.449 449.277C338.761 452.432 336.522 454.928 333.734 456.762C330.981 458.597 327.991 459.955 324.762 460.835L324.762 461.936C328.211 462.157 331.679 463.367 335.165 465.569C338.651 467.771 341.568 470.927 343.916 475.036C346.265 479.146 347.439 484.174 347.439 490.118C347.439 495.769 346.155 500.851 343.586 505.365C341.018 509.878 336.963 513.456 331.422 516.098C325.881 518.74 318.67 520.061 309.79 520.061L269.059 520.061ZM282.709 507.952L309.79 507.952C318.707 507.952 325.037 506.227 328.78 502.778C332.559 499.292 334.449 495.072 334.449 490.118C334.449 486.302 333.477 482.779 331.532 479.55C329.587 476.284 326.817 473.679 323.22 471.734C319.624 469.752 315.368 468.762 310.451 468.762L282.709 468.762L282.709 507.952ZM282.709 456.872L308.029 456.872C312.139 456.872 315.845 456.065 319.147 454.451C322.487 452.836 325.129 450.561 327.073 447.625C329.055 444.69 330.046 441.24 330.046 437.277C330.046 432.323 328.321 428.122 324.872 424.672C321.422 421.186 315.955 419.443 308.469 419.443L282.709 419.443L282.709 456.872ZM403.555 521.823C395.409 521.823 388.382 520.025 382.474 516.429C376.603 512.796 372.071 507.732 368.878 501.237C365.723 494.705 364.145 487.109 364.145 478.449C364.145 469.789 365.723 462.157 368.878 455.551C372.071 448.91 376.511 443.736 382.199 440.029C387.923 436.286 394.602 434.415 402.234 434.415C406.638 434.415 410.986 435.149 415.279 436.617C419.573 438.085 423.481 440.47 427.003 443.772C430.526 447.038 433.333 451.368 435.425 456.762C437.516 462.157 438.562 468.798 438.562 476.688L438.562 482.192L373.392 482.192L373.392 470.963L425.352 470.963C425.352 466.193 424.398 461.936 422.49 458.193C420.618 454.451 417.94 451.497 414.454 449.332C411.004 447.167 406.931 446.084 402.234 446.084C397.06 446.084 392.583 447.368 388.804 449.937C385.061 452.469 382.18 455.772 380.162 459.845C378.144 463.918 377.135 468.285 377.135 472.945L377.135 480.431C377.135 486.816 378.236 492.228 380.437 496.668C382.676 501.072 385.776 504.429 389.739 506.741C393.703 509.016 398.308 510.154 403.555 510.154C406.968 510.154 410.05 509.677 412.802 508.723C415.591 507.732 417.995 506.264 420.013 504.319C422.031 502.338 423.591 499.879 424.692 496.943L437.241 500.466C435.92 504.723 433.7 508.466 430.581 511.695C427.462 514.887 423.609 517.383 419.022 519.181C414.435 520.942 409.28 521.823 403.555 521.823ZM483.202 522.043C477.844 522.043 472.982 521.034 468.616 519.016C464.249 516.961 460.781 514.007 458.212 510.154C455.644 506.264 454.359 501.567 454.359 496.063C454.359 491.219 455.314 487.293 457.222 484.284C459.13 481.238 461.68 478.853 464.873 477.128C468.065 475.403 471.588 474.119 475.441 473.275C479.33 472.394 483.239 471.697 487.165 471.183C492.302 470.523 496.467 470.028 499.66 469.697C502.889 469.33 505.237 468.725 506.705 467.881C508.21 467.037 508.962 465.569 508.962 463.478L508.962 463.037C508.962 457.606 507.476 453.386 504.503 450.377C501.568 447.368 497.109 445.864 491.128 445.864C484.926 445.864 480.064 447.222 476.542 449.937C473.019 452.652 470.542 455.551 469.111 458.634L456.781 454.23C458.983 449.093 461.919 445.093 465.588 442.231C469.294 439.332 473.331 437.314 477.698 436.176C482.101 435.002 486.431 434.415 490.688 434.415C493.403 434.415 496.522 434.745 500.045 435.406C503.604 436.03 507.035 437.332 510.338 439.314C513.677 441.295 516.448 444.286 518.649 448.286C520.851 452.286 521.952 457.643 521.952 464.358L521.952 520.061L508.962 520.061L508.962 508.612L508.301 508.612C507.421 510.447 505.953 512.41 503.898 514.502C501.843 516.594 499.109 518.373 495.696 519.841C492.284 521.309 488.119 522.043 483.202 522.043ZM485.183 510.374C490.321 510.374 494.651 509.365 498.173 507.346C501.733 505.328 504.412 502.723 506.21 499.53C508.044 496.338 508.962 492.98 508.962 489.458L508.962 477.568C508.411 478.229 507.2 478.834 505.329 479.385C503.494 479.899 501.366 480.357 498.944 480.761C496.559 481.128 494.229 481.458 491.954 481.752C489.715 482.009 487.899 482.229 486.504 482.412C483.128 482.853 479.973 483.568 477.037 484.559C474.138 485.513 471.79 486.962 469.992 488.907C468.23 490.815 467.35 493.421 467.35 496.723C467.35 501.237 469.019 504.649 472.358 506.961C475.734 509.236 480.009 510.374 485.183 510.374ZM545.661 520.061L545.661 435.516L558.211 435.516L558.211 448.726L559.312 448.726C561.073 444.213 563.917 440.708 567.844 438.213C571.77 435.681 576.485 434.415 581.99 434.415C587.567 434.415 592.209 435.681 595.915 438.213C599.658 440.708 602.575 444.213 604.667 448.726L605.548 448.726C607.713 444.359 610.96 440.892 615.29 438.323C619.62 435.718 624.813 434.415 630.867 434.415C638.427 434.415 644.61 436.782 649.417 441.516C654.224 446.212 656.627 453.533 656.627 463.478L656.627 520.061L643.637 520.061L643.637 463.478C643.637 457.239 641.931 452.781 638.518 450.102C635.106 447.423 631.088 446.084 626.464 446.084C620.519 446.084 615.914 447.882 612.648 451.478C609.382 455.038 607.749 459.551 607.749 465.019L607.749 520.061L594.539 520.061L594.539 462.157C594.539 457.349 592.98 453.478 589.861 450.543C586.742 447.57 582.723 446.084 577.806 446.084C574.43 446.084 571.275 446.983 568.339 448.781C565.44 450.579 563.092 453.074 561.294 456.267C559.532 459.423 558.651 463.074 558.651 467.22L558.651 520.061L545.661 520.061ZM680.378 520.061L680.378 435.516L693.368 435.516L693.368 520.061L680.378 520.061ZM686.983 421.425C684.451 421.425 682.268 420.563 680.433 418.838C678.635 417.113 677.736 415.04 677.736 412.618C677.736 410.196 678.635 408.123 680.433 406.398C682.268 404.674 684.451 403.811 686.983 403.811C689.515 403.811 691.68 404.674 693.478 406.398C695.313 408.123 696.23 410.196 696.23 412.618C696.23 415.04 695.313 417.113 693.478 418.838C691.68 420.563 689.515 421.425 686.983 421.425ZM726.848 435.516L747.104 470.083L767.359 435.516L782.331 435.516L755.03 477.789L782.331 520.061L767.359 520.061L747.104 487.256L726.848 520.061L711.876 520.061L738.737 477.789L711.876 435.516L726.848 435.516Z" fill="black"/>
<path d="M269.059 520.061L268.059 520.061L268.059 521.061L269.059 521.061L269.059 520.061ZM269.059 407.334L269.059 406.334L268.059 406.334L268.059 407.334L269.059 407.334ZM327.899 411.407L327.429 412.29L327.434 412.293L327.899 411.407ZM339.293 422.251L338.416 422.731L338.418 422.734L339.293 422.251ZM340.449 449.277L339.571 448.797L339.567 448.805L340.449 449.277ZM333.734 456.762L333.184 455.927L333.179 455.93L333.734 456.762ZM324.762 460.835L324.499 459.871L323.762 460.072L323.762 460.835L324.762 460.835ZM324.762 461.936L323.762 461.936L323.762 462.875L324.698 462.934L324.762 461.936ZM335.165 465.569L334.631 466.415V466.415L335.165 465.569ZM343.586 505.365L344.455 505.86V505.86L343.586 505.365ZM331.422 516.098L330.991 515.196V515.196L331.422 516.098ZM282.709 507.952L281.709 507.952L281.709 508.952L282.709 508.952L282.709 507.952ZM328.78 502.778L329.457 503.513L329.458 503.513L328.78 502.778ZM331.532 479.55L330.673 480.062L330.675 480.066L331.532 479.55ZM323.22 471.734L322.738 472.61L322.745 472.614L323.22 471.734ZM282.709 468.762L282.709 467.762L281.709 467.762L281.709 468.762L282.709 468.762ZM282.709 456.872L281.709 456.872L281.709 457.872L282.709 457.872L282.709 456.872ZM319.147 454.451L318.712 453.55L318.708 453.552L319.147 454.451ZM327.073 447.625L326.245 447.066L326.24 447.073L327.073 447.625ZM324.872 424.672L324.161 425.376L324.165 425.38L324.872 424.672ZM282.709 419.443L282.709 418.443L281.709 418.443L281.709 419.443L282.709 419.443ZM269.059 520.061L270.059 520.061L270.059 407.334L269.059 407.334L268.059 407.334L268.059 520.061L269.059 520.061ZM269.059 407.334L269.059 408.334L308.469 408.334L308.469 407.334L308.469 406.334L269.059 406.334L269.059 407.334ZM308.469 407.334L308.469 408.334C316.214 408.334 322.516 409.674 327.429 412.29L327.899 411.407L328.369 410.525C323.081 407.709 316.43 406.334 308.469 406.334L308.469 407.334ZM327.899 411.407L327.434 412.293C332.381 414.89 336.026 418.372 338.416 422.731L339.293 422.251L340.17 421.77C337.57 417.028 333.619 413.282 328.364 410.522L327.899 411.407ZM339.293 422.251L338.418 422.734C340.826 427.09 342.036 431.93 342.036 437.277L343.036 437.277L344.036 437.277C344.036 431.615 342.751 426.438 340.168 421.767L339.293 422.251ZM343.036 437.277L342.036 437.277C342.036 442.009 341.193 445.83 339.571 448.797L340.449 449.277L341.326 449.756C343.154 446.411 344.036 442.233 344.036 437.277L343.036 437.277ZM340.449 449.277L339.567 448.805C337.952 451.825 335.824 454.19 333.184 455.927L333.734 456.762L334.283 457.598C337.221 455.665 339.57 453.04 341.331 449.748L340.449 449.277ZM333.734 456.762L333.179 455.93C330.517 457.705 327.625 459.018 324.499 459.871L324.762 460.835L325.025 461.8C328.356 460.892 331.446 459.489 334.288 457.594L333.734 456.762ZM324.762 460.835L323.762 460.835L323.762 461.936L324.762 461.936L325.762 461.936L325.762 460.835L324.762 460.835ZM324.762 461.936L324.698 462.934C327.951 463.142 331.259 464.285 334.631 466.415L335.165 465.569L335.699 464.724C332.098 462.45 328.471 461.171 324.825 460.938L324.762 461.936ZM335.165 465.569L334.631 466.415C337.959 468.517 340.769 471.544 343.048 475.533L343.917 475.036L344.785 474.54C342.367 470.31 339.342 467.025 335.699 464.724L335.165 465.569ZM343.917 475.036L343.048 475.533C345.291 479.457 346.439 484.304 346.439 490.118L347.439 490.118L348.439 490.118C348.439 484.043 347.239 478.835 344.785 474.54L343.917 475.036ZM347.439 490.118L346.439 490.118C346.439 495.611 345.193 500.521 342.717 504.87L343.586 505.365L344.455 505.86C347.117 501.182 348.439 495.927 348.439 490.118L347.439 490.118ZM343.586 505.365L342.717 504.87C340.267 509.176 336.382 512.625 330.991 515.196L331.422 516.098L331.852 517.001C337.543 514.287 341.768 510.581 344.455 505.86L343.586 505.365ZM331.422 516.098L330.991 515.196C325.631 517.752 318.583 519.061 309.79 519.061L309.79 520.061L309.79 521.061C318.758 521.061 326.131 519.729 331.852 517.001L331.422 516.098ZM309.79 520.061L309.79 519.061L269.059 519.061L269.059 520.061L269.059 521.061L309.79 521.061L309.79 520.061ZM282.709 507.952L282.709 508.952L309.79 508.952L309.79 507.952L309.79 506.952L282.709 506.952L282.709 507.952ZM309.79 507.952L309.79 508.952C318.786 508.952 325.433 507.222 329.457 503.513L328.78 502.778L328.102 502.043C324.64 505.233 318.628 506.952 309.79 506.952L309.79 507.952ZM328.78 502.778L329.458 503.513C333.434 499.846 335.449 495.363 335.449 490.118L334.449 490.118L333.449 490.118C333.449 494.781 331.685 498.738 328.102 502.043L328.78 502.778ZM334.449 490.118L335.449 490.118C335.449 486.122 334.428 482.421 332.389 479.034L331.532 479.55L330.675 480.066C332.525 483.137 333.449 486.481 333.449 490.118L334.449 490.118ZM331.532 479.55L332.391 479.038C330.347 475.606 327.439 472.878 323.696 470.854L323.22 471.734L322.745 472.614C326.195 474.479 328.827 476.962 330.673 480.062L331.532 479.55ZM323.22 471.734L323.703 470.858C319.933 468.78 315.503 467.762 310.451 467.762L310.451 468.762L310.451 469.762C315.232 469.762 319.316 470.724 322.738 472.61L323.22 471.734ZM310.451 468.762L310.451 467.762L282.709 467.762L282.709 468.762L282.709 469.762L310.451 469.762L310.451 468.762ZM282.709 468.762L281.709 468.762L281.709 507.952L282.709 507.952L283.709 507.952L283.709 468.762L282.709 468.762ZM282.709 456.872L282.709 457.872L308.029 457.872L308.029 456.872L308.029 455.872L282.709 455.872L282.709 456.872ZM308.029 456.872L308.029 457.872C312.273 457.872 316.132 457.038 319.587 455.349L319.147 454.451L318.708 453.552C315.558 455.092 312.004 455.872 308.029 455.872L308.029 456.872ZM319.147 454.451L319.583 455.351C323.075 453.662 325.858 451.271 327.907 448.178L327.073 447.625L326.24 447.073C324.399 449.851 321.899 452.009 318.712 453.55L319.147 454.451ZM327.073 447.625L327.902 448.185C330.008 445.065 331.046 441.415 331.046 437.277L330.046 437.277L329.046 437.277C329.046 441.066 328.102 444.315 326.245 447.066L327.073 447.625ZM330.046 437.277L331.046 437.277C331.046 432.063 329.219 427.605 325.579 423.965L324.872 424.672L324.165 425.38C327.423 428.638 329.046 432.584 329.046 437.277L330.046 437.277ZM324.872 424.672L325.583 423.969C321.867 420.214 316.084 418.443 308.469 418.443L308.469 419.443L308.469 420.443C315.826 420.443 320.978 422.159 324.161 425.376L324.872 424.672ZM308.469 419.443L308.469 418.443L282.709 418.443L282.709 419.443L282.709 420.443L308.469 420.443L308.469 419.443ZM282.709 419.443L281.709 419.443L281.709 456.872L282.709 456.872L283.709 456.872L283.709 419.443L282.709 419.443ZM382.474 516.429L381.948 517.279L381.954 517.283L382.474 516.429ZM368.878 501.237L367.978 501.672L367.981 501.678L368.878 501.237ZM368.878 455.551L367.977 455.118L367.976 455.12L368.878 455.551ZM382.199 440.029L382.745 440.867L382.746 440.866L382.199 440.029ZM415.279 436.617L415.603 435.67V435.67L415.279 436.617ZM427.003 443.772L426.319 444.502L426.323 444.506L427.003 443.772ZM435.425 456.762L436.357 456.401V456.401L435.425 456.762ZM438.562 482.192L438.562 483.192L439.562 483.192L439.562 482.192L438.562 482.192ZM373.392 482.192L372.392 482.192L372.392 483.192L373.392 483.192L373.392 482.192ZM373.392 470.963L373.392 469.963L372.392 469.963L372.392 470.963L373.392 470.963ZM425.352 470.963L425.352 471.963L426.352 471.963L426.352 470.963L425.352 470.963ZM422.49 458.193L421.595 458.641L421.599 458.648L422.49 458.193ZM414.454 449.332L413.922 450.179L413.926 450.181L414.454 449.332ZM388.804 449.937L389.364 450.765L389.366 450.764L388.804 449.937ZM380.162 459.845L379.266 459.401V459.401L380.162 459.845ZM380.437 496.668L379.541 497.112L379.546 497.121L380.437 496.668ZM389.739 506.741L389.236 507.605L389.242 507.608L389.739 506.741ZM412.802 508.723L413.13 509.667L413.137 509.665L412.802 508.723ZM420.013 504.319L420.707 505.039L420.713 505.033L420.013 504.319ZM424.692 496.943L424.962 495.981L424.078 495.732L423.755 496.592L424.692 496.943ZM437.241 500.466L438.196 500.763L438.501 499.781L437.512 499.503L437.241 500.466ZM430.581 511.695L431.296 512.394L431.3 512.39L430.581 511.695ZM419.022 519.181L419.381 520.114L419.387 520.112L419.022 519.181ZM403.555 521.823L403.555 520.823C395.559 520.823 388.719 519.059 382.994 515.574L382.474 516.429L381.954 517.283C388.044 520.99 395.258 522.823 403.555 522.823L403.555 521.823ZM382.474 516.429L383 515.578C377.296 512.049 372.89 507.131 369.776 500.796L368.878 501.237L367.981 501.678C371.252 508.333 375.909 513.542 381.948 517.279L382.474 516.429ZM368.878 501.237L369.779 500.802C366.7 494.429 365.145 486.987 365.145 478.449L364.145 478.449L363.145 478.449C363.145 487.231 364.745 494.981 367.978 501.672L368.878 501.237ZM364.145 478.449L365.145 478.449C365.145 469.911 366.7 462.431 369.781 455.982L368.878 455.551L367.976 455.12C364.745 461.882 363.145 469.667 363.145 478.449L364.145 478.449ZM368.878 455.551L369.78 455.985C372.9 449.493 377.223 444.465 382.745 440.867L382.199 440.029L381.653 439.192C375.799 443.006 371.242 448.326 367.977 455.118L368.878 455.551ZM382.199 440.029L382.746 440.866C388.289 437.242 394.773 435.415 402.234 435.415L402.234 434.415L402.234 433.415C394.431 433.415 387.557 435.331 381.651 439.192L382.199 440.029ZM402.234 434.415L402.234 435.415C406.524 435.415 410.763 436.13 414.956 437.563L415.279 436.617L415.603 435.67C411.208 434.168 406.751 433.415 402.234 433.415L402.234 434.415ZM415.279 436.617L414.956 437.563C419.106 438.982 422.893 441.29 426.319 444.502L427.003 443.772L427.687 443.043C424.068 439.65 420.039 437.187 415.603 435.67L415.279 436.617ZM427.003 443.772L426.323 444.506C429.714 447.649 432.445 451.843 434.492 457.124L435.425 456.762L436.357 456.401C434.222 450.894 431.338 446.427 427.683 443.039L427.003 443.772ZM435.425 456.762L434.492 457.124C436.526 462.369 437.562 468.88 437.562 476.688L438.562 476.688L439.562 476.688C439.562 468.717 438.507 461.944 436.357 456.401L435.425 456.762ZM438.562 476.688L437.562 476.688L437.562 482.192L438.562 482.192L439.562 482.192L439.562 476.688L438.562 476.688ZM438.562 482.192L438.562 481.192L373.392 481.192L373.392 482.192L373.392 483.192L438.562 483.192L438.562 482.192ZM373.392 482.192L374.392 482.192L374.392 470.963L373.392 470.963L372.392 470.963L372.392 482.192L373.392 482.192ZM373.392 470.963L373.392 471.963L425.352 471.963L425.352 470.963L425.352 469.963L373.392 469.963L373.392 470.963ZM425.352 470.963L426.352 470.963C426.352 466.057 425.37 461.641 423.381 457.739L422.49 458.193L421.599 458.648C423.426 462.232 424.352 466.329 424.352 470.963L425.352 470.963ZM422.49 458.193L423.384 457.746C421.432 453.841 418.628 450.747 414.981 448.482L414.454 449.332L413.926 450.181C417.252 452.246 419.805 455.06 421.595 458.641L422.49 458.193ZM414.454 449.332L414.985 448.485C411.353 446.205 407.09 445.084 402.234 445.084L402.234 446.084L402.234 447.084C406.772 447.084 410.655 448.128 413.922 450.179L414.454 449.332ZM402.234 446.084L402.234 445.084C396.887 445.084 392.208 446.414 388.242 449.11L388.804 449.937L389.366 450.764C392.958 448.323 397.233 447.084 402.234 447.084L402.234 446.084ZM388.804 449.937L388.243 449.109C384.356 451.738 381.361 455.174 379.266 459.401L380.162 459.845L381.058 460.289C383 456.37 385.765 453.2 389.364 450.765L388.804 449.937ZM380.162 459.845L379.266 459.401C377.178 463.615 376.135 468.135 376.135 472.945L377.135 472.945L378.135 472.945C378.135 468.435 379.11 464.22 381.058 460.289L380.162 459.845ZM377.135 472.945L376.135 472.945L376.135 480.431L377.135 480.431L378.135 480.431L378.135 472.945L377.135 472.945ZM377.135 480.431L376.135 480.431C376.135 486.927 377.254 492.5 379.541 497.112L380.437 496.668L381.333 496.224C379.217 491.956 378.135 486.704 378.135 480.431L377.135 480.431ZM380.437 496.668L379.546 497.121C381.864 501.682 385.094 505.189 389.236 507.605L389.739 506.741L390.243 505.877C386.459 503.67 383.487 500.461 381.329 496.215L380.437 496.668ZM389.739 506.741L389.242 507.608C393.377 509.983 398.159 511.154 403.555 511.154L403.555 510.154L403.555 509.154C398.456 509.154 394.028 508.05 390.237 505.874L389.739 506.741ZM403.555 510.154L403.555 511.154C407.061 511.154 410.256 510.664 413.13 509.667L412.802 508.723L412.475 507.778C409.844 508.69 406.875 509.154 403.555 509.154L403.555 510.154ZM412.802 508.723L413.137 509.665C416.052 508.629 418.58 507.088 420.707 505.039L420.013 504.319L419.319 503.599C417.409 505.44 415.13 506.834 412.468 507.78L412.802 508.723ZM420.013 504.319L420.713 505.033C422.847 502.938 424.481 500.352 425.628 497.295L424.692 496.943L423.755 496.592C422.7 499.406 421.216 501.737 419.312 503.606L420.013 504.319ZM424.692 496.943L424.421 497.906L436.971 501.429L437.241 500.466L437.512 499.503L424.962 495.981L424.692 496.943ZM437.241 500.466L436.286 500.17C435.012 504.276 432.873 507.883 429.862 511L430.581 511.695L431.3 512.39C434.527 509.049 436.829 505.17 438.196 500.763L437.241 500.466ZM430.581 511.695L429.866 510.996C426.856 514.077 423.126 516.498 418.657 518.25L419.022 519.181L419.387 520.112C424.092 518.267 428.068 515.698 431.296 512.394L430.581 511.695ZM419.022 519.181L418.664 518.247C414.208 519.958 409.177 520.823 403.555 520.823L403.555 521.823L403.555 522.823C409.382 522.823 414.662 521.926 419.381 520.114L419.022 519.181ZM468.616 519.016L468.19 519.92L468.196 519.923L468.616 519.016ZM458.212 510.154L457.378 510.705L457.38 510.708L458.212 510.154ZM457.222 484.284L458.066 484.819L458.069 484.815L457.222 484.284ZM475.441 473.275L475.655 474.252L475.662 474.25L475.441 473.275ZM487.165 471.183L487.037 470.192L487.035 470.192L487.165 471.183ZM499.66 469.697L499.762 470.692L499.772 470.691L499.66 469.697ZM506.705 467.881L506.216 467.009L506.207 467.014L506.705 467.881ZM504.503 450.377L503.788 451.076L503.792 451.08L504.503 450.377ZM476.542 449.937L477.152 450.729V450.729L476.542 449.937ZM469.111 458.634L468.775 459.576L469.634 459.882L470.018 459.055L469.111 458.634ZM456.781 454.23L455.862 453.836L455.443 454.814L456.445 455.172L456.781 454.23ZM465.588 442.231L466.203 443.02L466.204 443.019L465.588 442.231ZM477.698 436.176L477.95 437.144L477.955 437.143L477.698 436.176ZM500.045 435.406L499.861 436.389L499.872 436.391L500.045 435.406ZM510.338 439.314L509.823 440.171L509.828 440.174L510.338 439.314ZM518.649 448.286L517.773 448.768V448.768L518.649 448.286ZM521.952 520.061L521.952 521.061L522.952 521.061L522.952 520.061L521.952 520.061ZM508.962 520.061L507.962 520.061L507.962 521.061L508.962 521.061L508.962 520.061ZM508.962 508.612L509.962 508.612L509.962 507.612L508.962 507.612L508.962 508.612ZM508.301 508.612L508.301 507.612L507.672 507.612L507.4 508.18L508.301 508.612ZM503.898 514.502L504.611 515.203V515.203L503.898 514.502ZM495.696 519.841L495.301 518.923V518.923L495.696 519.841ZM498.173 507.346L497.68 506.477L497.676 506.479L498.173 507.346ZM506.21 499.53L505.343 499.032L505.338 499.04L506.21 499.53ZM508.962 477.568L509.962 477.568L509.962 474.806L508.194 476.928L508.962 477.568ZM505.329 479.385L505.599 480.348L505.611 480.344L505.329 479.385ZM498.944 480.761L499.096 481.749L499.108 481.747L498.944 480.761ZM491.954 481.752L492.068 482.745L492.082 482.743L491.954 481.752ZM486.504 482.412L486.634 483.404L486.635 483.404L486.504 482.412ZM477.037 484.559L477.35 485.509L477.357 485.506L477.037 484.559ZM469.992 488.907L469.257 488.228L469.257 488.229L469.992 488.907ZM472.358 506.961L471.789 507.783L471.8 507.79L472.358 506.961ZM483.202 522.043L483.202 521.043C477.973 521.043 473.256 520.059 469.035 518.108L468.616 519.016L468.196 519.923C472.708 522.009 477.716 523.043 483.202 523.043L483.202 522.043ZM468.616 519.016L469.041 518.111C464.832 516.13 461.508 513.294 459.045 509.599L458.212 510.154L457.38 510.708C460.054 514.719 463.666 517.791 468.19 519.92L468.616 519.016ZM458.212 510.154L459.047 509.603C456.605 505.904 455.359 501.407 455.359 496.063L454.359 496.063L453.359 496.063C453.359 501.727 454.683 506.624 457.378 510.705L458.212 510.154ZM454.359 496.063L455.359 496.063C455.359 491.343 456.29 487.62 458.066 484.819L457.222 484.284L456.377 483.748C454.337 486.965 453.359 491.095 453.359 496.063L454.359 496.063ZM457.222 484.284L458.069 484.815C459.885 481.917 462.306 479.651 465.348 478.008L464.873 477.128L464.397 476.248C461.054 478.054 458.375 480.559 456.374 483.753L457.222 484.284ZM464.873 477.128L465.348 478.008C468.451 476.331 471.885 475.078 475.655 474.252L475.441 473.275L475.227 472.298C471.291 473.161 467.679 474.476 464.397 476.248L464.873 477.128ZM475.441 473.275L475.662 474.25C479.521 473.377 483.399 472.685 487.295 472.175L487.165 471.183L487.035 470.192C483.078 470.71 479.14 471.412 475.22 472.3L475.441 473.275ZM487.165 471.183L487.292 472.175C492.426 471.515 496.582 471.021 499.762 470.692L499.66 469.697L499.557 468.703C496.353 469.034 492.179 469.531 487.037 470.192L487.165 471.183ZM499.66 469.697L499.772 470.691C503.035 470.32 505.552 469.697 507.203 468.748L506.705 467.881L506.207 467.014C504.922 467.753 502.742 468.341 499.547 468.704L499.66 469.697ZM506.705 467.881L507.194 468.753C509.086 467.692 509.962 465.84 509.962 463.478L508.962 463.478L507.962 463.478C507.962 465.298 507.333 466.382 506.216 467.009L506.705 467.881ZM508.962 463.478L509.962 463.478L509.962 463.037L508.962 463.037L507.962 463.037L507.962 463.478L508.962 463.478ZM508.962 463.037L509.962 463.037C509.962 457.421 508.42 452.92 505.215 449.675L504.503 450.377L503.792 451.08C506.531 453.853 507.962 457.791 507.962 463.037L508.962 463.037ZM504.503 450.377L505.219 449.679C502.028 446.408 497.263 444.864 491.128 444.864L491.128 445.864L491.128 446.864C496.955 446.864 501.108 448.329 503.788 451.076L504.503 450.377ZM491.128 445.864L491.128 444.864C484.791 444.864 479.686 446.251 475.931 449.145L476.542 449.937L477.152 450.729C480.443 448.193 485.062 446.864 491.128 446.864L491.128 445.864ZM476.542 449.937L475.931 449.145C472.319 451.929 469.72 454.947 468.204 458.213L469.111 458.634L470.018 459.055C471.364 456.156 473.719 453.376 477.152 450.729L476.542 449.937ZM469.111 458.634L469.447 457.692L457.118 453.289L456.781 454.23L456.445 455.172L468.775 459.576L469.111 458.634ZM456.781 454.23L457.701 454.624C459.849 449.611 462.691 445.759 466.203 443.02L465.588 442.231L464.973 441.443C461.146 444.428 458.117 448.575 455.862 453.836L456.781 454.23ZM465.588 442.231L466.204 443.019C469.807 440.2 473.721 438.246 477.95 437.144L477.698 436.176L477.445 435.209C472.941 436.382 468.781 438.464 464.972 441.443L465.588 442.231ZM477.698 436.176L477.955 437.143C482.28 435.989 486.524 435.415 490.688 435.415L490.688 434.415L490.688 433.415C486.338 433.415 481.921 434.015 477.44 435.21L477.698 436.176ZM490.688 434.415L490.688 435.415C493.325 435.415 496.381 435.736 499.861 436.389L500.045 435.406L500.229 434.423C496.664 433.754 493.481 433.415 490.688 433.415L490.688 434.415ZM500.045 435.406L499.872 436.391C503.303 436.992 506.619 438.249 509.823 440.171L510.338 439.314L510.852 438.456C507.452 436.416 503.905 435.067 500.217 434.421L500.045 435.406ZM510.338 439.314L509.828 440.174C512.988 442.049 515.642 444.897 517.773 448.768L518.649 448.286L519.525 447.804C517.253 443.675 514.366 440.541 510.848 438.454L510.338 439.314ZM518.649 448.286L517.773 448.768C519.864 452.567 520.952 457.738 520.952 464.358L521.952 464.358L522.952 464.358C522.952 457.548 521.838 452.004 519.525 447.804L518.649 448.286ZM521.952 464.358L520.952 464.358L520.952 520.061L521.952 520.061L522.952 520.061L522.952 464.358L521.952 464.358ZM521.952 520.061L521.952 519.061L508.962 519.061L508.962 520.061L508.962 521.061L521.952 521.061L521.952 520.061ZM508.962 520.061L509.962 520.061L509.962 508.612L508.962 508.612L507.962 508.612L507.962 520.061L508.962 520.061ZM508.962 508.612L508.962 507.612L508.301 507.612L508.301 508.612L508.301 509.612L508.962 509.612L508.962 508.612ZM508.301 508.612L507.4 508.18C506.583 509.882 505.193 511.757 503.185 513.801L503.898 514.502L504.611 515.203C506.712 513.064 508.259 511.012 509.203 509.045L508.301 508.612ZM503.898 514.502L503.185 513.801C501.241 515.779 498.625 517.493 495.301 518.923L495.696 519.841L496.092 520.76C499.593 519.254 502.445 517.408 504.611 515.203L503.898 514.502ZM495.696 519.841L495.301 518.923C492.047 520.322 488.025 521.043 483.202 521.043L483.202 522.043L483.202 523.043C488.213 523.043 492.521 522.296 496.092 520.76L495.696 519.841ZM485.183 510.374L485.183 511.374C490.45 511.374 494.961 510.339 498.671 508.214L498.173 507.346L497.676 506.479C494.34 508.39 490.192 509.374 485.183 509.374L485.183 510.374ZM498.173 507.346L498.667 508.216C502.365 506.119 505.184 503.39 507.081 500.021L506.21 499.53L505.338 499.04C503.64 502.056 501.1 504.537 497.68 506.477L498.173 507.346ZM506.21 499.53L507.077 500.029C508.994 496.692 509.962 493.163 509.962 489.458L508.962 489.458L507.962 489.458C507.962 492.797 507.094 495.984 505.343 499.032L506.21 499.53ZM508.962 489.458L509.962 489.458L509.962 477.568L508.962 477.568L507.962 477.568L507.962 489.458L508.962 489.458ZM508.962 477.568L508.194 476.928C508.043 477.109 507.739 477.351 507.194 477.623C506.659 477.891 505.948 478.16 505.047 478.425L505.329 479.385L505.611 480.344C506.581 480.059 507.412 479.75 508.088 479.412C508.754 479.079 509.33 478.688 509.73 478.209L508.962 477.568ZM505.329 479.385L505.059 478.422C503.267 478.924 501.176 479.375 498.78 479.775L498.944 480.761L499.108 481.747C501.556 481.339 503.721 480.874 505.599 480.348L505.329 479.385ZM498.944 480.761L498.792 479.773C496.414 480.138 494.092 480.467 491.826 480.76L491.954 481.752L492.082 482.743C494.365 482.449 496.703 482.117 499.096 481.749L498.944 480.761ZM491.954 481.752L491.84 480.758C489.599 481.015 487.776 481.236 486.374 481.421L486.504 482.412L486.635 483.404C488.022 483.221 489.832 483.002 492.068 482.745L491.954 481.752ZM486.504 482.412L486.375 481.421C482.941 481.869 479.72 482.598 476.717 483.611L477.037 484.559L477.357 485.506C480.225 484.538 483.316 483.836 486.634 483.404L486.504 482.412ZM477.037 484.559L476.724 483.609C473.689 484.608 471.187 486.141 469.257 488.228L469.992 488.907L470.726 489.586C472.392 487.784 474.587 486.418 477.35 485.509L477.037 484.559ZM469.992 488.907L469.257 488.229C467.282 490.368 466.35 493.24 466.35 496.723L467.35 496.723L468.35 496.723C468.35 493.601 469.178 491.263 470.726 489.585L469.992 488.907ZM467.35 496.723L466.35 496.723C466.35 501.522 468.147 505.262 471.789 507.783L472.358 506.961L472.928 506.139C469.891 504.037 468.35 500.951 468.35 496.723L467.35 496.723ZM472.358 506.961L471.8 507.79C475.38 510.204 479.864 511.374 485.183 511.374L485.183 510.374L485.183 509.374C480.155 509.374 476.088 508.269 472.917 506.132L472.358 506.961ZM545.661 520.061L544.661 520.061L544.661 521.061L545.661 521.061L545.661 520.061ZM545.661 435.516L545.661 434.516L544.661 434.516L544.661 435.516L545.661 435.516ZM558.211 435.516L559.211 435.516L559.211 434.516L558.211 434.516L558.211 435.516ZM558.211 448.726L557.211 448.726L557.211 449.726L558.211 449.726L558.211 448.726ZM559.312 448.726L559.312 449.726L559.995 449.726L560.244 449.09L559.312 448.726ZM567.844 438.213L568.38 439.057L568.386 439.053L567.844 438.213ZM595.915 438.213L595.351 439.039L595.361 439.045L595.915 438.213ZM604.667 448.726L603.76 449.147L604.028 449.726L604.667 449.726L604.667 448.726ZM605.548 448.726L605.548 449.726L606.168 449.726L606.444 449.17L605.548 448.726ZM615.29 438.323L615.801 439.183L615.806 439.18L615.29 438.323ZM649.417 441.516L648.715 442.228L648.718 442.231L649.417 441.516ZM656.627 520.061L656.627 521.061L657.627 521.061L657.627 520.061L656.627 520.061ZM643.637 520.061L642.637 520.061L642.637 521.061L643.637 521.061L643.637 520.061ZM638.518 450.102L637.901 450.889V450.889L638.518 450.102ZM612.648 451.478L613.385 452.154L613.389 452.151L612.648 451.478ZM607.75 520.061L607.75 521.061L608.75 521.061L608.75 520.061L607.75 520.061ZM594.539 520.061L593.539 520.061L593.539 521.061L594.539 521.061L594.539 520.061ZM589.861 450.543L589.171 451.266L589.175 451.271L589.861 450.543ZM568.339 448.781L567.817 447.928L567.812 447.931L568.339 448.781ZM561.294 456.267L560.422 455.776L560.42 455.78L561.294 456.267ZM558.651 520.061L558.651 521.061L559.651 521.061L559.651 520.061L558.651 520.061ZM545.661 520.061L546.661 520.061L546.661 435.516L545.661 435.516L544.661 435.516L544.661 520.061L545.661 520.061ZM545.661 435.516L545.661 436.516L558.211 436.516L558.211 435.516L558.211 434.516L545.661 434.516L545.661 435.516ZM558.211 435.516L557.211 435.516L557.211 448.726L558.211 448.726L559.211 448.726L559.211 435.516L558.211 435.516ZM558.211 448.726L558.211 449.726L559.312 449.726L559.312 448.726L559.312 447.726L558.211 447.726L558.211 448.726ZM559.312 448.726L560.244 449.09C561.931 444.765 564.641 441.433 568.38 439.057L567.844 438.213L567.307 437.369C563.194 439.983 560.216 443.66 558.38 448.363L559.312 448.726ZM567.844 438.213L568.386 439.053C572.123 436.643 576.643 435.415 581.99 435.415L581.99 434.415L581.99 433.415C576.328 433.415 571.417 434.719 567.302 437.373L567.844 438.213ZM581.99 434.415L581.99 435.415C587.415 435.415 591.848 436.645 595.351 439.039L595.915 438.213L596.479 437.387C592.571 434.717 587.719 433.415 581.99 433.415L581.99 434.415ZM595.915 438.213L595.361 439.045C598.934 441.428 601.737 444.782 603.76 449.147L604.667 448.726L605.574 448.306C603.414 443.643 600.382 439.989 596.47 437.381L595.915 438.213ZM604.667 448.726L604.667 449.726L605.548 449.726L605.548 448.726L605.548 447.726L604.667 447.726L604.667 448.726ZM605.548 448.726L606.444 449.17C608.52 444.982 611.631 441.657 615.801 439.183L615.29 438.323L614.78 437.463C610.29 440.127 606.906 443.736 604.652 448.282L605.548 448.726ZM615.29 438.323L615.806 439.18C619.952 436.685 624.958 435.415 630.867 435.415L630.867 434.415L630.867 433.415C624.667 433.415 619.289 434.75 614.775 437.466L615.29 438.323ZM630.867 434.415L630.867 435.415C638.198 435.415 644.118 437.701 648.715 442.228L649.417 441.516L650.118 440.803C645.101 435.862 638.655 433.415 630.867 433.415L630.867 434.415ZM649.417 441.516L648.718 442.231C653.256 446.665 655.627 453.674 655.627 463.478L656.627 463.478L657.627 463.478C657.627 453.393 655.191 445.76 650.116 440.8L649.417 441.516ZM656.627 463.478L655.627 463.478L655.627 520.061L656.627 520.061L657.627 520.061L657.627 463.478L656.627 463.478ZM656.627 520.061L656.627 519.061L643.637 519.061L643.637 520.061L643.637 521.061L656.627 521.061L656.627 520.061ZM643.637 520.061L644.637 520.061L644.637 463.478L643.637 463.478L642.637 463.478L642.637 520.061L643.637 520.061ZM643.637 463.478L644.637 463.478C644.637 457.073 642.882 452.256 639.136 449.316L638.518 450.102L637.901 450.889C640.98 453.305 642.637 457.406 642.637 463.478L643.637 463.478ZM638.518 450.102L639.136 449.316C635.535 446.489 631.296 445.084 626.464 445.084L626.464 446.084L626.464 447.084C630.879 447.084 634.676 448.358 637.901 450.889L638.518 450.102ZM626.464 446.084L626.464 445.084C620.306 445.084 615.405 446.956 611.908 450.806L612.648 451.478L613.389 452.151C616.423 448.809 620.733 447.084 626.464 447.084L626.464 446.084ZM612.648 451.478L611.911 450.802C608.454 454.571 606.75 459.336 606.75 465.019L607.75 465.019L608.75 465.019C608.75 459.766 610.311 455.505 613.385 452.154L612.648 451.478ZM607.75 465.019L606.75 465.019L606.75 520.061L607.75 520.061L608.75 520.061L608.75 465.019L607.75 465.019ZM607.75 520.061L607.75 519.061L594.539 519.061L594.539 520.061L594.539 521.061L607.75 521.061L607.75 520.061ZM594.539 520.061L595.539 520.061L595.539 462.157L594.539 462.157L593.539 462.157L593.539 520.061L594.539 520.061ZM594.539 462.157L595.539 462.157C595.539 457.111 593.891 452.963 590.546 449.814L589.861 450.543L589.175 451.271C592.068 453.993 593.539 457.588 593.539 462.157L594.539 462.157ZM589.861 450.543L590.551 449.819C587.219 446.644 582.941 445.084 577.806 445.084L577.806 446.084L577.806 447.084C582.506 447.084 586.264 448.497 589.171 451.266L589.861 450.543ZM577.806 446.084L577.806 445.084C574.242 445.084 570.906 446.036 567.817 447.928L568.339 448.781L568.861 449.634C571.643 447.93 574.619 447.084 577.806 447.084L577.806 446.084ZM568.339 448.781L567.812 447.931C564.759 449.825 562.297 452.448 560.422 455.776L561.294 456.267L562.165 456.758C563.887 453.701 566.121 451.334 568.866 449.631L568.339 448.781ZM561.294 456.267L560.42 455.78C558.564 459.105 557.651 462.929 557.651 467.22L558.651 467.22L559.651 467.22C559.651 463.219 560.5 459.74 562.167 456.754L561.294 456.267ZM558.651 467.22L557.651 467.22L557.651 520.061L558.651 520.061L559.651 520.061L559.651 467.22L558.651 467.22ZM558.651 520.061L558.651 519.061L545.661 519.061L545.661 520.061L545.661 521.061L558.651 521.061L558.651 520.061ZM680.378 520.061L679.378 520.061L679.378 521.061L680.378 521.061L680.378 520.061ZM680.378 435.516L680.378 434.516L679.378 434.516L679.378 435.516L680.378 435.516ZM693.368 435.516L694.368 435.516L694.368 434.516L693.368 434.516L693.368 435.516ZM693.368 520.061L693.368 521.061L694.368 521.061L694.368 520.061L693.368 520.061ZM680.433 418.838L679.741 419.56L679.748 419.567L680.433 418.838ZM680.433 406.398L679.748 405.67L679.741 405.677L680.433 406.398ZM693.478 406.398L692.786 407.12L692.793 407.127L693.478 406.398ZM693.478 418.838L692.793 418.109L692.786 418.116L693.478 418.838ZM680.378 520.061L681.378 520.061L681.378 435.516L680.378 435.516L679.378 435.516L679.378 520.061L680.378 520.061ZM680.378 435.516L680.378 436.516L693.368 436.516L693.368 435.516L693.368 434.516L680.378 434.516L680.378 435.516ZM693.368 435.516L692.368 435.516L692.368 520.061L693.368 520.061L694.368 520.061L694.368 435.516L693.368 435.516ZM693.368 520.061L693.368 519.061L680.378 519.061L680.378 520.061L680.378 521.061L693.368 521.061L693.368 520.061ZM686.983 421.425L686.983 420.425C684.704 420.425 682.766 419.659 681.118 418.109L680.433 418.838L679.748 419.567C681.77 421.467 684.198 422.425 686.983 422.425L686.983 421.425ZM680.433 418.838L681.125 418.116C679.518 416.574 678.736 414.759 678.736 412.618L677.736 412.618L676.736 412.618C676.736 415.321 677.753 417.653 679.741 419.56L680.433 418.838ZM677.736 412.618L678.736 412.618C678.736 410.477 679.518 408.662 681.125 407.12L680.433 406.398L679.741 405.677C677.753 407.584 676.736 409.915 676.736 412.618L677.736 412.618ZM680.433 406.398L681.118 407.127C682.766 405.578 684.704 404.811 686.983 404.811L686.983 403.811L686.983 402.811C684.198 402.811 681.77 403.77 679.748 405.67L680.433 406.398ZM686.983 403.811L686.983 404.811C689.262 404.811 691.178 405.577 692.786 407.12L693.478 406.398L694.171 405.677C692.183 403.77 689.769 402.811 686.983 402.811L686.983 403.811ZM693.478 406.398L692.793 407.127C694.436 408.671 695.23 410.484 695.23 412.618L696.23 412.618L697.23 412.618C697.23 409.908 696.19 407.575 694.163 405.67L693.478 406.398ZM696.23 412.618L695.23 412.618C695.23 414.752 694.436 416.565 692.793 418.109L693.478 418.838L694.163 419.567C696.19 417.661 697.23 415.328 697.23 412.618L696.23 412.618ZM693.478 418.838L692.786 418.116C691.178 419.659 689.262 420.425 686.983 420.425L686.983 421.425L686.983 422.425C689.769 422.425 692.183 421.466 694.171 419.56L693.478 418.838ZM726.848 435.516L727.711 435.01L727.421 434.516L726.848 434.516L726.848 435.516ZM747.104 470.083L746.241 470.588L747.104 472.061L747.966 470.588L747.104 470.083ZM767.359 435.516L767.359 434.516L766.786 434.516L766.497 435.01L767.359 435.516ZM782.331 435.516L783.171 436.058L784.167 434.516L782.331 434.516L782.331 435.516ZM755.03 477.789L754.19 477.246L753.839 477.789L754.19 478.331L755.03 477.789ZM782.331 520.061L782.331 521.061L784.167 521.061L783.171 519.519L782.331 520.061ZM767.359 520.061L766.508 520.587L766.801 521.061L767.359 521.061L767.359 520.061ZM747.104 487.256L747.954 486.731L747.104 485.353L746.253 486.731L747.104 487.256ZM726.848 520.061L726.848 521.061L727.406 521.061L727.699 520.587L726.848 520.061ZM711.876 520.061L711.032 519.525L710.056 521.061L711.876 521.061L711.876 520.061ZM738.737 477.789L739.581 478.325L739.922 477.789L739.581 477.252L738.737 477.789ZM711.876 435.516L711.876 434.516L710.056 434.516L711.032 436.052L711.876 435.516ZM726.848 435.516L725.985 436.021L746.241 470.588L747.104 470.083L747.966 469.577L727.711 435.01L726.848 435.516ZM747.104 470.083L747.966 470.588L768.222 436.021L767.359 435.516L766.497 435.01L746.241 469.577L747.104 470.083ZM767.359 435.516L767.359 436.516L782.331 436.516L782.331 435.516L782.331 434.516L767.359 434.516L767.359 435.516ZM782.331 435.516L781.491 434.973L754.19 477.246L755.03 477.789L755.87 478.331L783.171 436.058L782.331 435.516ZM755.03 477.789L754.19 478.331L781.491 520.604L782.331 520.061L783.171 519.519L755.87 477.246L755.03 477.789ZM782.331 520.061L782.331 519.061L767.359 519.061L767.359 520.061L767.359 521.061L782.331 521.061L782.331 520.061ZM767.359 520.061L768.21 519.536L747.954 486.731L747.104 487.256L746.253 487.781L766.508 520.587L767.359 520.061ZM747.104 487.256L746.253 486.731L725.997 519.536L726.848 520.061L727.699 520.587L747.954 487.781L747.104 487.256ZM726.848 520.061L726.848 519.061L711.876 519.061L711.876 520.061L711.876 521.061L726.848 521.061L726.848 520.061ZM711.876 520.061L712.72 520.598L739.581 478.325L738.737 477.789L737.893 477.252L711.032 519.525L711.876 520.061ZM738.737 477.789L739.581 477.252L712.72 434.98L711.876 435.516L711.032 436.052L737.893 478.325L738.737 477.789ZM711.876 435.516L711.876 436.516L726.848 436.516L726.848 435.516L726.848 434.516L711.876 434.516L711.876 435.516Z" fill="black" mask="url(#path-1-outside-1_2596_745)"/>
<path d="M124.885 449.825C124.797 449.861 124.65 449.881 124.418 449.88C124.308 449.88 124.192 449.875 124.067 449.869C123.945 449.864 123.812 449.858 123.684 449.857C115.084 449.804 106.731 450.777 98.5051 452.232C76.1693 456.182 55.9201 464.137 37.7283 476.019C37.6792 476.051 37.6176 476.083 37.5501 476.114C37.618 475.948 37.6948 475.756 37.784 475.54C38.132 474.7 38.6387 473.496 39.272 472.042C40.539 469.131 42.3125 465.221 44.34 461.215C46.3688 457.207 48.6456 453.116 50.9182 449.84C52.0546 448.201 53.1831 446.777 54.2716 445.671C55.3658 444.56 56.3908 443.801 57.3151 443.45L57.3211 443.448L59.102 442.757C77.5347 435.723 96.9798 431.901 117.422 430.916C118.046 430.886 118.4 430.965 118.646 431.125C118.891 431.285 119.114 431.583 119.341 432.193C121.414 437.758 123.184 443.378 124.874 449.027C124.997 449.438 124.989 449.648 124.965 449.739C124.952 449.788 124.94 449.803 124.885 449.825Z" fill="#FF3D00" stroke="#FF3D00"/>
<path d="M156.003 462.625C155.97 462.654 155.893 462.703 155.729 462.743C149.725 464.213 143.616 465.358 137.394 466.155C137.381 466.151 137.371 466.148 137.357 466.143C137.23 465.978 137.158 465.793 137.112 465.576C137.084 465.443 137.066 465.302 137.05 465.144C137.034 464.995 137.018 464.817 136.994 464.648C134.715 448.539 129.631 432.909 122.653 417.601C120.968 413.905 119.209 410.232 117.25 406.627C116.854 405.898 116.785 405.268 116.926 404.493C118.301 396.94 120.626 389.739 123.004 382.521C123.041 382.408 123.094 382.209 123.117 382.134C123.151 382.022 123.184 381.935 123.228 381.861C123.273 381.784 123.344 381.696 123.485 381.613C136.63 401.585 146.262 422.696 152.279 445.094C153.749 450.723 155.009 456.258 156 461.813C156.068 462.197 156.092 462.4 156.057 462.533C156.046 462.577 156.03 462.601 156.003 462.625Z" fill="#FF3D00" stroke="#FF3D00"/>
<path d="M121.026 477.701C121.114 477.666 121.261 477.645 121.493 477.646C121.603 477.647 121.719 477.651 121.844 477.657C121.966 477.662 122.098 477.668 122.227 477.668C130.826 477.717 139.178 476.739 147.402 475.28C169.734 471.316 189.977 463.35 208.16 451.456C208.209 451.424 208.271 451.392 208.338 451.362C208.271 451.528 208.194 451.72 208.105 451.935C207.757 452.776 207.251 453.98 206.619 455.435C205.354 458.346 203.583 462.258 201.558 466.265C199.532 470.275 197.258 474.368 194.987 477.645C193.852 479.284 192.724 480.709 191.636 481.816C190.543 482.928 189.519 483.687 188.594 484.039L188.588 484.041L186.808 484.733C168.381 491.778 148.94 495.611 128.499 496.607C127.876 496.638 127.521 496.559 127.275 496.399C127.03 496.24 126.807 495.941 126.58 495.332C124.504 489.767 122.731 484.148 121.038 478.499C120.915 478.088 120.922 477.879 120.946 477.788C120.959 477.738 120.971 477.723 121.026 477.701Z" fill="#FF3D00" stroke="#FF3D00"/>
<path d="M122.224 545.584C113.217 532.279 105.999 518.315 100.276 503.634C95.5698 491.266 92.0193 478.85 89.6914 466.254C89.5557 465.519 89.612 465.169 89.7406 464.967C89.8665 464.77 90.1498 464.58 90.8594 464.417C96.2377 463.181 101.69 462.184 107.198 461.329C107.841 461.229 108.085 461.31 108.199 461.399C108.321 461.497 108.449 461.726 108.535 462.343C110.431 475.88 114.347 489.136 119.617 502.183C122.055 508.219 124.747 514.189 127.947 519.986C128.629 521.221 128.805 522.274 128.561 523.545C127.159 530.842 124.931 537.828 122.608 544.81C122.521 545.071 122.406 545.321 122.224 545.584Z" fill="#FF3D00" stroke="#FF3D00"/>
<path d="M106.1 421.504C105.937 421.661 105.639 421.787 105.023 421.83C99.1127 422.249 93.3349 423.149 87.6227 424.236C87.486 424.262 87.3377 424.304 87.2365 424.329C87.1229 424.357 87.0253 424.377 86.9267 424.385C86.8021 424.395 86.6535 424.386 86.4597 424.32C87.0076 411.442 89.3921 399.507 92.5781 387.042C92.5781 387.042 92.5809 387.034 92.5887 387.019C92.5967 387.004 92.6088 386.983 92.6281 386.957C92.6677 386.903 92.7283 386.836 92.8154 386.755C92.9907 386.593 93.2454 386.405 93.5797 386.193C94.2467 385.771 95.1781 385.29 96.2959 384.772C98.5281 383.738 101.449 382.586 104.359 381.507C107.267 380.429 110.154 379.428 112.315 378.696C113.395 378.33 114.294 378.033 114.923 377.826C115.143 377.753 115.33 377.691 115.48 377.642C115.434 377.816 115.374 377.999 115.325 378.139C110.613 391.69 107.214 405.677 106.413 420.491C106.381 421.076 106.257 421.351 106.1 421.504Z" fill="#FF3D00" stroke="#FF3D00"/>
<path d="M139.658 506.062C139.818 505.901 140.113 505.771 140.727 505.719C146.619 505.213 152.371 504.226 158.054 503.053C158.19 503.025 158.338 502.981 158.438 502.954C158.551 502.924 158.647 502.902 158.746 502.893C158.87 502.881 159.018 502.888 159.213 502.951C158.863 515.8 156.437 524.906 153.445 537.47C153.434 537.505 153.377 537.616 153.197 537.809C153.021 537.997 152.768 538.222 152.438 538.479C151.781 538.992 150.864 539.603 149.767 540.275C147.575 541.617 144.706 543.179 141.849 544.667C138.993 546.155 136.157 547.566 134.034 548.605C132.973 549.124 132.091 549.551 131.474 549.847C131.291 549.935 131.132 550.01 130.999 550.074C131.04 549.921 131.09 549.766 131.13 549.644C135.621 535.998 138.794 521.934 139.362 507.081C139.385 506.493 139.504 506.217 139.658 506.062Z" fill="#FF3D00" stroke="#FF3D00"/>
<path d="M201.076 444.406C198.19 446.412 195.393 447.939 192.541 449.639L192.54 449.638C188.485 452.039 184.35 454.11 180.107 456.024C179.489 456.303 178.944 456.375 178.253 456.189C173.94 455.029 169.604 454.055 165.252 453.264C164.864 453.193 164.635 453.098 164.485 452.972C164.346 452.856 164.224 452.671 164.144 452.311C162.772 446.093 161.065 439.918 158.963 433.799C158.942 433.736 158.929 433.655 158.923 433.483C158.923 433.464 158.923 433.444 158.922 433.423C173.096 435.79 186.991 439.206 201.076 444.406Z" fill="#FF3D00" stroke="#FF3D00"/>
<path d="M86.6734 493.985C72.4049 491.659 58.4756 488.124 44.569 483.039C45.2888 482.291 46.1334 481.931 47.0202 481.388C52.5889 477.974 58.2397 474.71 64.2215 471.939C65.7444 471.234 67.1139 470.987 68.7742 471.611C69.3539 471.829 70.0188 471.938 70.6331 472.093L70.6502 472.096L75.4658 473.138C77.0535 473.479 78.6287 473.812 80.2045 474.128C80.6328 474.215 80.8967 474.297 81.0804 474.429C81.2373 474.541 81.3807 474.723 81.4687 475.123C82.8367 481.348 84.5613 487.526 86.6117 493.656C86.6343 493.724 86.6497 493.804 86.6708 493.968C86.6715 493.974 86.6727 493.979 86.6734 493.985Z" fill="#FF3D00" stroke="#FF3D00"/>
<path d="M154.35 423.731C176.907 428.114 188.414 431.327 206.832 438.342" stroke="#FF3D00" stroke-width="3"/>
<path d="M112.154 550.194C99.8653 530.383 94.3698 519.682 87.1951 501.807" stroke="#FF3D00" stroke-width="3"/>
<path d="M128.143 371.712C127.296 372.13 126.449 372.548 125.603 372.965C126.075 373.764 126.591 374.645 127.091 375.499C135.993 390.851 144.871 406.299 152.475 422.104C152.881 422.965 153.302 423.881 153.683 424.732C154.59 424.432 155.497 424.131 156.405 423.831C156.014 422.956 155.583 422.02 155.17 421.142C147.446 405.093 138.577 389.676 129.64 374.262C129.138 373.403 128.622 372.523 128.143 371.712Z" fill="#FF3D00"/>
<path d="M87.8881 502.357C65.3547 497.671 52.1228 494.682 33.7752 487.426" stroke="#FF3D00" stroke-width="3"/>
</svg>
