<svg width="544" height="544" viewBox="0 0 544 544" fill="none" xmlns="http://www.w3.org/2000/svg">
<path d="M120.225 237.887C138.168 243.253 147.241 246.782 161.615 253.951" stroke="#023C65" stroke-width="3"/>
<path d="M75.8498 337.06C67.4742 320.007 63.8767 310.887 59.4934 295.814" stroke="#023C65" stroke-width="3"/>
<path d="M103.394 193.502C102.51 193.835 101.627 194.167 100.743 194.5C101.061 195.184 101.409 195.94 101.745 196.673C107.73 209.832 113.69 223.075 118.579 236.481C118.838 237.21 119.106 237.985 119.345 238.703C120.278 238.494 121.21 238.284 122.143 238.075C121.896 237.331 121.62 236.535 121.355 235.789C116.372 222.13 110.417 208.917 104.404 195.692C104.066 194.955 103.718 194.2 103.394 193.502Z" fill="#023C65"/>
<path d="M60.0122 296.316C42.1139 290.706 31.6227 287.22 17.3254 279.861" stroke="#023C65" stroke-width="3"/>
<path d="M94.209 256.594C94.1528 256.611 94.0468 256.617 93.861 256.597C93.7736 256.588 93.6821 256.576 93.5807 256.561C93.4829 256.547 93.3742 256.532 93.2679 256.521C86.2904 255.787 79.4313 255.904 72.64 256.424C54.2344 257.832 37.1948 262.645 21.5024 270.797C21.5374 270.731 21.5731 270.661 21.6122 270.588C21.9616 269.935 22.4689 268.999 23.0991 267.871C24.3597 265.613 26.1115 262.586 28.0762 259.502C30.0424 256.416 32.2147 253.285 34.3168 250.816C35.368 249.581 36.3935 248.52 37.3596 247.715C38.3319 246.905 39.2118 246.381 39.971 246.176L39.9779 246.175C55.9439 241.638 72.5096 239.972 89.6958 240.841C90.1967 240.867 90.4545 240.957 90.6184 241.088C90.7815 241.219 90.9319 241.456 91.0651 241.961C92.2987 246.638 93.2819 251.337 94.1987 256.053C94.2641 256.39 94.2379 256.539 94.22 256.587C94.2169 256.596 94.2304 256.588 94.209 256.594Z" fill="#023C65" stroke="#023C65"/>
<path d="M118.39 269.487C118.376 269.497 118.325 269.526 118.199 269.544C113.226 270.252 108.194 270.689 103.099 270.837C103.031 270.716 102.996 270.585 102.979 270.429C102.968 270.324 102.964 270.212 102.963 270.083C102.962 269.963 102.964 269.814 102.958 269.673C102.403 256.415 99.5329 243.321 95.1004 230.339C94.0306 227.206 92.8979 224.084 91.5972 221C91.3438 220.399 91.3384 219.904 91.5098 219.305C93.2291 213.297 95.6906 207.649 98.1995 201.985C98.238 201.898 98.3015 201.728 98.3222 201.678C98.3573 201.593 98.3883 201.533 98.4233 201.485C98.4473 201.452 98.4825 201.416 98.5403 201.378C107.569 218.598 113.668 236.455 116.742 255.064C117.482 259.744 118.057 264.33 118.415 268.912C118.426 269.06 118.434 269.176 118.432 269.277C118.431 269.377 118.419 269.432 118.409 269.46C118.402 269.479 118.397 269.482 118.39 269.487Z" fill="#023C65" stroke="#023C65"/>
<path d="M88.892 279.07C88.9483 279.053 89.0542 279.047 89.24 279.066C89.3274 279.075 89.4189 279.088 89.5203 279.102C89.6181 279.116 89.7268 279.131 89.8332 279.143C96.8105 279.873 103.669 279.751 110.46 279.228C128.863 277.809 145.898 272.985 161.585 264.824C161.55 264.89 161.514 264.961 161.475 265.034C161.126 265.687 160.619 266.622 159.99 267.751C158.731 270.01 156.981 273.039 155.018 276.124C153.054 279.211 150.883 282.343 148.783 284.814C147.733 286.05 146.708 287.111 145.742 287.917C144.77 288.727 143.891 289.252 143.132 289.457L143.125 289.459C127.163 294.005 110.599 295.681 93.4141 294.821C92.9131 294.796 92.6553 294.706 92.4914 294.575C92.3282 294.444 92.1777 294.208 92.0442 293.702C90.8079 289.026 89.8221 284.327 88.9027 279.611C88.8371 279.274 88.8632 279.125 88.8811 279.077C88.8842 279.068 88.8706 279.076 88.892 279.07Z" fill="#023C65" stroke="#023C65"/>
<path d="M84.4028 333.964C78.2026 322.495 73.494 310.637 70.0453 298.322C67.2232 287.919 65.3421 277.57 64.4662 267.174C64.4153 266.571 64.4917 266.322 64.5889 266.198C64.6828 266.079 64.8951 265.951 65.4793 265.876C69.9376 265.306 74.438 264.936 78.9724 264.685C79.4969 264.656 79.6534 264.743 79.7084 264.797C79.7718 264.858 79.8561 265.02 79.8765 265.526C80.3271 276.666 82.4417 287.738 85.6696 298.748C87.1628 303.841 88.8677 308.903 90.999 313.866C91.4448 314.904 91.5003 315.75 91.2067 316.739C89.4857 322.538 87.1208 328.019 84.6761 333.495C84.6046 333.655 84.5199 333.809 84.4028 333.964Z" fill="#023C65" stroke="#023C65"/>
<path d="M81.2161 232.133C81.0977 232.227 80.8736 232.305 80.3769 232.292C75.5449 232.156 70.7828 232.423 66.061 232.846C65.9446 232.856 65.8151 232.879 65.7351 232.891C65.6424 232.904 65.5674 232.912 65.4944 232.91C65.4195 232.909 65.3316 232.896 65.2213 232.854C66.7016 222.491 69.5865 213.032 73.1618 203.205C73.1681 203.196 73.2086 203.136 73.3468 203.032C73.4958 202.919 73.7118 202.79 73.9972 202.646C74.5668 202.36 75.3565 202.046 76.303 201.716C78.1929 201.058 80.6516 200.36 83.0976 199.719C85.5412 199.078 87.9622 198.498 89.773 198.079C90.6783 197.869 91.431 197.698 91.9568 197.581C92.065 197.557 92.1637 197.536 92.2521 197.516C92.2184 197.595 92.1847 197.672 92.1542 197.738C87.2419 208.356 83.3586 219.435 81.5175 231.396C81.446 231.86 81.3283 232.044 81.2161 232.133Z" fill="#023C65" stroke="#023C65"/>
<path d="M101.759 303.549C101.875 303.453 102.097 303.372 102.594 303.378C107.417 303.441 112.165 303.101 116.87 302.606C116.986 302.594 117.116 302.57 117.195 302.557C117.287 302.542 117.361 302.533 117.434 302.533C117.509 302.534 117.597 302.546 117.708 302.586C116.391 312.926 113.702 320.096 110.275 330.02C110.277 330.014 110.271 330.033 110.235 330.077C110.2 330.12 110.146 330.175 110.07 330.242C109.917 330.377 109.698 330.535 109.412 330.716C108.842 331.077 108.053 331.496 107.11 331.953C105.228 332.864 102.778 333.9 100.342 334.877C97.908 335.854 95.4954 336.771 93.6909 337.443C92.7889 337.778 92.0389 338.053 91.5148 338.243C91.441 338.27 91.3715 338.295 91.3069 338.318C91.3282 338.268 91.3485 338.22 91.3679 338.176C96.108 327.464 99.814 316.304 101.469 304.292C101.533 303.826 101.648 303.64 101.759 303.549Z" fill="#023C65" stroke="#023C65"/>
<path d="M156.259 258.412C153.818 259.761 151.481 260.754 149.078 261.881C145.601 263.501 142.085 264.846 138.492 266.058C137.987 266.228 137.561 266.242 137.037 266.044C133.63 264.755 130.19 263.617 126.721 262.625C126.419 262.538 126.259 262.447 126.163 262.35C126.078 262.263 126 262.125 125.966 261.841C125.352 256.684 124.463 251.536 123.248 246.401C123.241 246.37 123.24 246.326 123.244 246.234C134.449 249.27 145.35 253.124 156.259 258.412Z" fill="#023C65" stroke="#023C65"/>
<path d="M59.5998 289.304C48.3101 286.289 37.3867 282.336 26.6045 277.148C27.2031 276.679 27.8621 276.465 28.5915 276.111C33.3806 273.79 38.2214 271.599 43.29 269.834C44.5664 269.39 45.6701 269.304 46.9374 269.929C47.3959 270.155 47.9426 270.302 48.4167 270.473L48.4334 270.478C51.0156 271.308 53.514 272.127 56.0198 272.894C56.3598 272.998 56.5496 273.082 56.6718 273.189C56.7692 273.274 56.8631 273.41 56.9003 273.724C57.5103 278.886 58.4133 284.039 59.5846 289.178C59.5917 289.209 59.5962 289.245 59.5998 289.304Z" fill="#023C65" stroke="#023C65"/>
<mask id="path-13-outside-1_2463_2" maskUnits="userSpaceOnUse" x="198.514" y="233.087" width="272" height="63" fill="black">
<rect fill="white" x="198.514" y="233.087" width="272" height="63"/>
<path d="M215.874 293.727C212.621 293.727 209.527 293.647 206.594 293.487C203.714 293.327 201.421 293.14 199.714 292.927L199.714 237.247C201.581 237.034 203.901 236.847 206.674 236.687C209.447 236.527 212.621 236.447 216.194 236.447C223.021 236.447 228.274 237.754 231.954 240.367C235.634 242.927 237.474 246.42 237.474 250.847C237.474 253.78 236.674 256.287 235.074 258.367C233.527 260.394 231.261 262.074 228.274 263.407C231.901 264.687 234.647 266.474 236.514 268.767C238.381 271.007 239.314 273.78 239.314 277.087C239.314 282.154 237.314 286.207 233.314 289.247C229.314 292.234 223.501 293.727 215.874 293.727ZM207.314 261.247L216.114 261.247C220.327 261.247 223.661 260.367 226.114 258.607C228.621 256.847 229.874 254.58 229.874 251.807C229.874 248.82 228.647 246.554 226.194 245.007C223.741 243.407 220.381 242.607 216.114 242.607C214.354 242.607 212.754 242.66 211.314 242.767C209.874 242.82 208.541 242.9 207.314 243.007L207.314 261.247ZM216.434 287.407C221.181 287.407 224.887 286.554 227.554 284.847C230.221 283.14 231.554 280.66 231.554 277.407C231.554 274.207 230.247 271.7 227.634 269.887C225.021 268.074 221.287 267.167 216.434 267.167L207.314 267.167L207.314 286.927C210.141 287.247 213.181 287.407 216.434 287.407ZM265.945 294.047C259.971 294.047 255.225 292.154 251.705 288.367C248.238 284.527 246.505 279.167 246.505 272.287C246.505 268.127 247.278 264.42 248.825 261.167C250.425 257.86 252.638 255.274 255.465 253.407C258.291 251.487 261.571 250.527 265.305 250.527C269.305 250.527 272.611 251.407 275.225 253.167C277.891 254.874 279.891 257.194 281.225 260.127C282.558 263.06 283.225 266.287 283.225 269.807C283.225 271.674 283.145 273.487 282.985 275.247L253.865 275.247C254.345 279.14 255.705 282.18 257.945 284.367C260.185 286.554 263.145 287.647 266.825 287.647C269.225 287.647 271.385 287.407 273.305 286.927C275.225 286.394 277.065 285.727 278.825 284.927L280.505 291.087C278.585 291.94 276.425 292.634 274.025 293.167C271.625 293.754 268.931 294.047 265.945 294.047ZM253.785 269.407L276.585 269.407C276.585 265.354 275.571 262.234 273.545 260.047C271.518 257.86 268.718 256.767 265.145 256.767C262.051 256.767 259.491 257.86 257.465 260.047C255.438 262.18 254.211 265.3 253.785 269.407ZM308.74 294.047C305.273 294.047 302.127 293.167 299.3 291.407C296.473 289.647 294.207 287.167 292.5 283.967C290.847 280.714 290.02 276.9 290.02 272.527C290.02 268.367 290.847 264.634 292.5 261.327C294.207 258.02 296.527 255.407 299.46 253.487C302.447 251.514 305.86 250.527 309.7 250.527C312.1 250.527 314.26 250.954 316.18 251.807C318.153 252.607 319.86 253.62 321.3 254.847L321.3 251.487L327.86 251.487L327.86 283.007C327.86 285.034 328.34 286.367 329.3 287.007C330.313 287.594 331.407 287.887 332.58 287.887L331.06 293.487C325.94 293.487 322.847 291.407 321.78 287.247C320.553 288.954 318.873 290.527 316.74 291.967C314.66 293.354 311.993 294.047 308.74 294.047ZM310.34 287.647C312.367 287.647 314.287 287.167 316.1 286.207C317.913 285.194 319.433 283.94 320.66 282.447L320.66 260.127C319.22 259.114 317.62 258.314 315.86 257.727C314.153 257.087 312.34 256.767 310.42 256.767C307.86 256.767 305.593 257.434 303.62 258.767C301.7 260.047 300.18 261.86 299.06 264.207C297.94 266.5 297.38 269.194 297.38 272.287C297.38 275.274 297.94 277.94 299.06 280.287C300.18 282.58 301.727 284.394 303.7 285.727C305.673 287.007 307.887 287.647 310.34 287.647ZM342.195 293.087L342.195 251.487L349.155 251.487L349.155 258.447C350.648 256.207 352.542 254.34 354.835 252.847C357.128 251.3 359.742 250.527 362.675 250.527C365.982 250.527 368.675 251.327 370.755 252.927C372.888 254.527 374.382 256.66 375.235 259.327C376.888 256.874 378.835 254.794 381.075 253.087C383.368 251.38 386.195 250.527 389.555 250.527C394.088 250.527 397.448 251.967 399.635 254.847C401.875 257.674 402.995 261.38 402.995 265.967L402.995 293.087L395.795 293.087L395.795 266.527C395.795 263.647 395.128 261.327 393.795 259.567C392.462 257.754 390.622 256.847 388.275 256.847C385.875 256.847 383.635 257.754 381.555 259.567C379.528 261.327 377.742 263.407 376.195 265.807L376.195 293.087L368.995 293.087L368.995 266.527C368.995 263.647 368.328 261.327 366.995 259.567C365.662 257.754 363.822 256.847 361.475 256.847C359.128 256.847 356.915 257.727 354.835 259.487C352.755 261.194 350.942 263.22 349.395 265.567L349.395 293.087L342.195 293.087ZM415.398 293.087L415.398 251.487L422.598 251.487L422.598 293.087L415.398 293.087ZM418.998 244.367C417.612 244.367 416.412 243.86 415.398 242.847C414.438 241.834 413.958 240.66 413.958 239.327C413.958 237.78 414.412 236.554 415.318 235.647C416.225 234.74 417.452 234.287 418.998 234.287C420.385 234.287 421.558 234.794 422.518 235.807C423.532 236.767 424.038 237.94 424.038 239.327C424.038 240.82 423.585 242.047 422.678 243.007C421.772 243.914 420.545 244.367 418.998 244.367ZM462.758 293.807L448.758 276.447L434.918 293.647L429.798 289.167L444.598 271.967L430.358 255.487L435.958 250.607L448.838 267.247L461.478 250.927L466.838 255.487L452.998 271.647L468.198 289.167L462.758 293.807Z"/>
</mask>
<path d="M215.874 293.727C212.621 293.727 209.527 293.647 206.594 293.487C203.714 293.327 201.421 293.14 199.714 292.927L199.714 237.247C201.581 237.034 203.901 236.847 206.674 236.687C209.447 236.527 212.621 236.447 216.194 236.447C223.021 236.447 228.274 237.754 231.954 240.367C235.634 242.927 237.474 246.42 237.474 250.847C237.474 253.78 236.674 256.287 235.074 258.367C233.527 260.394 231.261 262.074 228.274 263.407C231.901 264.687 234.647 266.474 236.514 268.767C238.381 271.007 239.314 273.78 239.314 277.087C239.314 282.154 237.314 286.207 233.314 289.247C229.314 292.234 223.501 293.727 215.874 293.727ZM207.314 261.247L216.114 261.247C220.327 261.247 223.661 260.367 226.114 258.607C228.621 256.847 229.874 254.58 229.874 251.807C229.874 248.82 228.647 246.554 226.194 245.007C223.741 243.407 220.381 242.607 216.114 242.607C214.354 242.607 212.754 242.66 211.314 242.767C209.874 242.82 208.541 242.9 207.314 243.007L207.314 261.247ZM216.434 287.407C221.181 287.407 224.887 286.554 227.554 284.847C230.221 283.14 231.554 280.66 231.554 277.407C231.554 274.207 230.247 271.7 227.634 269.887C225.021 268.074 221.287 267.167 216.434 267.167L207.314 267.167L207.314 286.927C210.141 287.247 213.181 287.407 216.434 287.407ZM265.945 294.047C259.971 294.047 255.225 292.154 251.705 288.367C248.238 284.527 246.505 279.167 246.505 272.287C246.505 268.127 247.278 264.42 248.825 261.167C250.425 257.86 252.638 255.274 255.465 253.407C258.291 251.487 261.571 250.527 265.305 250.527C269.305 250.527 272.611 251.407 275.225 253.167C277.891 254.874 279.891 257.194 281.225 260.127C282.558 263.06 283.225 266.287 283.225 269.807C283.225 271.674 283.145 273.487 282.985 275.247L253.865 275.247C254.345 279.14 255.705 282.18 257.945 284.367C260.185 286.554 263.145 287.647 266.825 287.647C269.225 287.647 271.385 287.407 273.305 286.927C275.225 286.394 277.065 285.727 278.825 284.927L280.505 291.087C278.585 291.94 276.425 292.634 274.025 293.167C271.625 293.754 268.931 294.047 265.945 294.047ZM253.785 269.407L276.585 269.407C276.585 265.354 275.571 262.234 273.545 260.047C271.518 257.86 268.718 256.767 265.145 256.767C262.051 256.767 259.491 257.86 257.465 260.047C255.438 262.18 254.211 265.3 253.785 269.407ZM308.74 294.047C305.273 294.047 302.127 293.167 299.3 291.407C296.473 289.647 294.207 287.167 292.5 283.967C290.847 280.714 290.02 276.9 290.02 272.527C290.02 268.367 290.847 264.634 292.5 261.327C294.207 258.02 296.527 255.407 299.46 253.487C302.447 251.514 305.86 250.527 309.7 250.527C312.1 250.527 314.26 250.954 316.18 251.807C318.153 252.607 319.86 253.62 321.3 254.847L321.3 251.487L327.86 251.487L327.86 283.007C327.86 285.034 328.34 286.367 329.3 287.007C330.313 287.594 331.407 287.887 332.58 287.887L331.06 293.487C325.94 293.487 322.847 291.407 321.78 287.247C320.553 288.954 318.873 290.527 316.74 291.967C314.66 293.354 311.993 294.047 308.74 294.047ZM310.34 287.647C312.367 287.647 314.287 287.167 316.1 286.207C317.913 285.194 319.433 283.94 320.66 282.447L320.66 260.127C319.22 259.114 317.62 258.314 315.86 257.727C314.153 257.087 312.34 256.767 310.42 256.767C307.86 256.767 305.593 257.434 303.62 258.767C301.7 260.047 300.18 261.86 299.06 264.207C297.94 266.5 297.38 269.194 297.38 272.287C297.38 275.274 297.94 277.94 299.06 280.287C300.18 282.58 301.727 284.394 303.7 285.727C305.673 287.007 307.887 287.647 310.34 287.647ZM342.195 293.087L342.195 251.487L349.155 251.487L349.155 258.447C350.648 256.207 352.542 254.34 354.835 252.847C357.128 251.3 359.742 250.527 362.675 250.527C365.982 250.527 368.675 251.327 370.755 252.927C372.888 254.527 374.382 256.66 375.235 259.327C376.888 256.874 378.835 254.794 381.075 253.087C383.368 251.38 386.195 250.527 389.555 250.527C394.088 250.527 397.448 251.967 399.635 254.847C401.875 257.674 402.995 261.38 402.995 265.967L402.995 293.087L395.795 293.087L395.795 266.527C395.795 263.647 395.128 261.327 393.795 259.567C392.462 257.754 390.622 256.847 388.275 256.847C385.875 256.847 383.635 257.754 381.555 259.567C379.528 261.327 377.742 263.407 376.195 265.807L376.195 293.087L368.995 293.087L368.995 266.527C368.995 263.647 368.328 261.327 366.995 259.567C365.662 257.754 363.822 256.847 361.475 256.847C359.128 256.847 356.915 257.727 354.835 259.487C352.755 261.194 350.942 263.22 349.395 265.567L349.395 293.087L342.195 293.087ZM415.398 293.087L415.398 251.487L422.598 251.487L422.598 293.087L415.398 293.087ZM418.998 244.367C417.612 244.367 416.412 243.86 415.398 242.847C414.438 241.834 413.958 240.66 413.958 239.327C413.958 237.78 414.412 236.554 415.318 235.647C416.225 234.74 417.452 234.287 418.998 234.287C420.385 234.287 421.558 234.794 422.518 235.807C423.532 236.767 424.038 237.94 424.038 239.327C424.038 240.82 423.585 242.047 422.678 243.007C421.772 243.914 420.545 244.367 418.998 244.367ZM462.758 293.807L448.758 276.447L434.918 293.647L429.798 289.167L444.598 271.967L430.358 255.487L435.958 250.607L448.838 267.247L461.478 250.927L466.838 255.487L452.998 271.647L468.198 289.167L462.758 293.807Z" fill="#023C65"/>
<path d="M206.594 293.487L206.538 294.485L206.539 294.485L206.594 293.487ZM199.714 292.927L198.714 292.927L198.714 293.81L199.59 293.919L199.714 292.927ZM199.714 237.247L199.6 236.253L198.714 236.355L198.714 237.247L199.714 237.247ZM206.674 236.687L206.616 235.689H206.616L206.674 236.687ZM231.954 240.367L231.375 241.182L231.383 241.188L231.954 240.367ZM235.074 258.367L234.281 257.757L234.279 257.76L235.074 258.367ZM228.274 263.407L227.866 262.494L225.577 263.516L227.941 264.35L228.274 263.407ZM236.514 268.767L235.738 269.398L235.746 269.407L236.514 268.767ZM233.314 289.247L233.912 290.048L233.919 290.043L233.314 289.247ZM207.314 261.247L206.314 261.247L206.314 262.247L207.314 262.247L207.314 261.247ZM226.114 258.607L225.539 257.788L225.531 257.794L226.114 258.607ZM226.194 245.007L225.648 245.845L225.654 245.849L225.661 245.853L226.194 245.007ZM211.314 242.767L211.351 243.766L211.369 243.766L211.388 243.764L211.314 242.767ZM207.314 243.007L207.227 242.011L206.314 242.09L206.314 243.007L207.314 243.007ZM227.554 284.847L227.015 284.005V284.005L227.554 284.847ZM227.634 269.887L228.204 269.065V269.065L227.634 269.887ZM207.314 267.167L207.314 266.167L206.314 266.167L206.314 267.167L207.314 267.167ZM207.314 286.927L206.314 286.927L206.314 287.82L207.201 287.921L207.314 286.927ZM215.874 293.727L215.874 292.727C212.637 292.727 209.562 292.647 206.648 292.488L206.594 293.487L206.539 294.485C209.493 294.647 212.604 294.727 215.874 294.727L215.874 293.727ZM206.594 293.487L206.649 292.488C203.779 292.329 201.512 292.144 199.838 291.935L199.714 292.927L199.59 293.919C201.329 294.137 203.649 294.325 206.538 294.485L206.594 293.487ZM199.714 292.927L200.714 292.927L200.714 237.247L199.714 237.247L198.714 237.247L198.714 292.927L199.714 292.927ZM199.714 237.247L199.827 238.24C201.669 238.03 203.969 237.845 206.731 237.685L206.674 236.687L206.616 235.689C203.832 235.849 201.492 236.037 199.6 236.253L199.714 237.247ZM206.674 236.687L206.731 237.685C209.481 237.527 212.635 237.447 216.194 237.447L216.194 236.447L216.194 235.447C212.606 235.447 209.413 235.527 206.616 235.689L206.674 236.687ZM216.194 236.447L216.194 237.447C222.913 237.447 227.931 238.736 231.375 241.182L231.954 240.367L232.533 239.552C228.617 236.771 223.128 235.447 216.194 235.447L216.194 236.447ZM231.954 240.367L231.383 241.188C234.798 243.564 236.474 246.753 236.474 250.847L237.474 250.847L238.474 250.847C238.474 246.088 236.47 242.29 232.525 239.546L231.954 240.367ZM237.474 250.847L236.474 250.847C236.474 253.587 235.731 255.873 234.281 257.757L235.074 258.367L235.867 258.977C237.617 256.701 238.474 253.973 238.474 250.847L237.474 250.847ZM235.074 258.367L234.279 257.76C232.858 259.622 230.742 261.21 227.866 262.494L228.274 263.407L228.682 264.32C231.779 262.937 234.196 261.166 235.869 258.974L235.074 258.367ZM228.274 263.407L227.941 264.35C231.445 265.587 234.018 267.284 235.738 269.398L236.514 268.767L237.289 268.136C235.277 265.663 232.356 263.787 228.607 262.464L228.274 263.407ZM236.514 268.767L235.746 269.407C237.443 271.443 238.314 273.981 238.314 277.087L239.314 277.087L240.314 277.087C240.314 273.58 239.319 270.57 237.282 268.127L236.514 268.767ZM239.314 277.087L238.314 277.087C238.314 281.844 236.458 285.602 232.709 288.451L233.314 289.247L233.919 290.043C238.17 286.812 240.314 282.463 240.314 277.087L239.314 277.087ZM233.314 289.247L232.716 288.446C228.958 291.251 223.392 292.727 215.874 292.727L215.874 293.727L215.874 294.727C223.609 294.727 229.67 293.216 233.912 290.048L233.314 289.247ZM207.314 261.247L207.314 262.247L216.114 262.247L216.114 261.247L216.114 260.247L207.314 260.247L207.314 261.247ZM216.114 261.247L216.114 262.247C220.456 262.247 224.018 261.341 226.697 259.419L226.114 258.607L225.531 257.794C223.303 259.393 220.198 260.247 216.114 260.247L216.114 261.247ZM226.114 258.607L226.689 259.425C229.429 257.501 230.874 254.944 230.874 251.807L229.874 251.807L228.874 251.807C228.874 254.217 227.812 256.193 225.539 257.789L226.114 258.607ZM229.874 251.807L230.874 251.807C230.874 248.489 229.481 245.897 226.727 244.161L226.194 245.007L225.661 245.853C227.813 247.21 228.874 249.151 228.874 251.807L229.874 251.807ZM226.194 245.007L226.74 244.169C224.066 242.425 220.491 241.607 216.114 241.607L216.114 242.607L216.114 243.607C220.27 243.607 223.415 244.389 225.648 245.845L226.194 245.007ZM216.114 242.607L216.114 241.607C214.334 241.607 212.709 241.661 211.24 241.77L211.314 242.767L211.388 243.764C212.799 243.66 214.373 243.607 216.114 243.607L216.114 242.607ZM211.314 242.767L211.277 241.768C209.823 241.821 208.473 241.902 207.227 242.011L207.314 243.007L207.401 244.003C208.608 243.898 209.925 243.819 211.351 243.766L211.314 242.767ZM207.314 243.007L206.314 243.007L206.314 261.247L207.314 261.247L208.314 261.247L208.314 243.007L207.314 243.007ZM216.434 287.407L216.434 288.407C221.282 288.407 225.204 287.538 228.093 285.689L227.554 284.847L227.015 284.005C224.571 285.569 221.079 286.407 216.434 286.407L216.434 287.407ZM227.554 284.847L228.093 285.689C231.056 283.793 232.554 280.99 232.554 277.407L231.554 277.407L230.554 277.407C230.554 280.331 229.385 282.488 227.015 284.005L227.554 284.847ZM231.554 277.407L232.554 277.407C232.554 273.882 231.089 271.067 228.204 269.065L227.634 269.887L227.064 270.709C229.406 272.334 230.554 274.532 230.554 277.407L231.554 277.407ZM227.634 269.887L228.204 269.065C225.356 267.089 221.391 266.167 216.434 266.167L216.434 267.167L216.434 268.167C221.184 268.167 224.685 269.058 227.064 270.709L227.634 269.887ZM216.434 267.167L216.434 266.167L207.314 266.167L207.314 267.167L207.314 268.167L216.434 268.167L216.434 267.167ZM207.314 267.167L206.314 267.167L206.314 286.927L207.314 286.927L208.314 286.927L208.314 267.167L207.314 267.167ZM207.314 286.927L207.201 287.921C210.07 288.245 213.148 288.407 216.434 288.407L216.434 287.407L216.434 286.407C213.213 286.407 210.211 286.248 207.426 285.933L207.314 286.927ZM251.705 288.367L250.962 289.037L250.967 289.042L250.972 289.048L251.705 288.367ZM248.825 261.167L247.924 260.731L247.921 260.738L248.825 261.167ZM255.465 253.407L256.016 254.241L256.026 254.234L255.465 253.407ZM275.225 253.167L274.666 253.996L274.676 254.003L274.685 254.009L275.225 253.167ZM281.225 260.127L282.135 259.713V259.713L281.225 260.127ZM282.985 275.247L282.985 276.247L283.898 276.247L283.98 275.337L282.985 275.247ZM253.865 275.247L253.865 274.247L252.734 274.247L252.872 275.369L253.865 275.247ZM273.305 286.927L273.547 287.897L273.56 287.894L273.572 287.89L273.305 286.927ZM278.825 284.927L279.789 284.664L279.48 283.53L278.411 284.017L278.825 284.927ZM280.505 291.087L280.911 292.001L281.695 291.652L281.469 290.824L280.505 291.087ZM274.025 293.167L273.808 292.191L273.797 292.193L273.787 292.196L274.025 293.167ZM253.785 269.407L252.79 269.304L252.675 270.407L253.785 270.407L253.785 269.407ZM276.585 269.407L276.585 270.407L277.585 270.407L277.585 269.407L276.585 269.407ZM273.545 260.047L272.811 260.727V260.727L273.545 260.047ZM257.465 260.047L258.19 260.736L258.198 260.727L257.465 260.047ZM265.945 294.047L265.945 293.047C260.202 293.047 255.738 291.237 252.437 287.686L251.705 288.367L250.972 289.048C254.711 293.07 259.741 295.047 265.945 295.047L265.945 294.047ZM251.705 288.367L252.447 287.697C249.194 284.094 247.505 279.003 247.505 272.287L246.505 272.287L245.505 272.287C245.505 279.331 247.281 284.96 250.962 289.037L251.705 288.367ZM246.505 272.287L247.505 272.287C247.505 268.253 248.254 264.696 249.728 261.596L248.825 261.167L247.921 260.738C246.302 264.144 245.505 268.001 245.505 272.287L246.505 272.287ZM248.825 261.167L249.725 261.602C251.253 258.444 253.352 256.001 256.016 254.241L255.465 253.407L254.913 252.572C251.924 254.547 249.596 257.277 247.924 260.731L248.825 261.167ZM255.465 253.407L256.026 254.234C258.672 252.437 261.752 251.527 265.305 251.527L265.305 250.527L265.305 249.527C261.39 249.527 257.91 250.537 254.903 252.58L255.465 253.407ZM265.305 250.527L265.305 251.527C269.159 251.527 272.257 252.374 274.666 253.996L275.225 253.167L275.783 252.337C272.965 250.44 269.45 249.527 265.305 249.527L265.305 250.527ZM275.225 253.167L274.685 254.009C277.187 255.61 279.059 257.78 280.314 260.541L281.225 260.127L282.135 259.713C280.723 256.607 278.596 254.137 275.764 252.325L275.225 253.167ZM281.225 260.127L280.314 260.541C281.583 263.332 282.225 266.416 282.225 269.807L283.225 269.807L284.225 269.807C284.225 266.158 283.533 262.788 282.135 259.713L281.225 260.127ZM283.225 269.807L282.225 269.807C282.225 271.645 282.146 273.428 281.989 275.156L282.985 275.247L283.98 275.337C284.143 273.546 284.225 271.702 284.225 269.807L283.225 269.807ZM282.985 275.247L282.985 274.247L253.865 274.247L253.865 275.247L253.865 276.247L282.985 276.247L282.985 275.247ZM253.865 275.247L252.872 275.369C253.373 279.43 254.806 282.701 257.246 285.083L257.945 284.367L258.643 283.651C256.603 281.66 255.316 278.851 254.857 275.125L253.865 275.247ZM257.945 284.367L257.246 285.083C259.705 287.483 262.933 288.647 266.825 288.647L266.825 287.647L266.825 286.647C263.356 286.647 260.664 285.624 258.643 283.651L257.945 284.367ZM266.825 287.647L266.825 288.647C269.29 288.647 271.533 288.401 273.547 287.897L273.305 286.927L273.062 285.957C271.236 286.413 269.159 286.647 266.825 286.647L266.825 287.647ZM273.305 286.927L273.572 287.89C275.541 287.344 277.43 286.659 279.238 285.837L278.825 284.927L278.411 284.017C276.699 284.794 274.908 285.444 273.037 285.963L273.305 286.927ZM278.825 284.927L277.86 285.19L279.54 291.35L280.505 291.087L281.469 290.824L279.789 284.664L278.825 284.927ZM280.505 291.087L280.098 290.173C278.248 290.995 276.153 291.669 273.808 292.191L274.025 293.167L274.241 294.143C276.696 293.598 278.921 292.885 280.911 292.001L280.505 291.087ZM274.025 293.167L273.787 292.196C271.479 292.76 268.867 293.047 265.945 293.047L265.945 294.047L265.945 295.047C268.995 295.047 271.77 294.747 274.262 294.138L274.025 293.167ZM253.785 269.407L253.785 270.407L276.585 270.407L276.585 269.407L276.585 268.407L253.785 268.407L253.785 269.407ZM276.585 269.407L277.585 269.407C277.585 265.193 276.53 261.797 274.278 259.367L273.545 260.047L272.811 260.727C274.613 262.671 275.585 265.514 275.585 269.407L276.585 269.407ZM273.545 260.047L274.278 259.367C272.025 256.936 268.936 255.767 265.145 255.767L265.145 256.767L265.145 257.767C268.499 257.767 271.011 258.784 272.811 260.727L273.545 260.047ZM265.145 256.767L265.145 255.767C261.785 255.767 258.955 256.968 256.731 259.367L257.465 260.047L258.198 260.727C260.027 258.753 262.318 257.767 265.145 257.767L265.145 256.767ZM257.465 260.047L256.74 259.358C254.51 261.705 253.23 265.064 252.79 269.304L253.785 269.407L254.779 269.51C255.192 265.537 256.366 262.656 258.19 260.736L257.465 260.047ZM299.3 291.407L299.829 290.558V290.558L299.3 291.407ZM292.5 283.967L291.609 284.42L291.613 284.429L291.618 284.438L292.5 283.967ZM292.5 261.327L291.611 260.868L291.606 260.88L292.5 261.327ZM299.46 253.487L300.008 254.324L300.011 254.321L299.46 253.487ZM316.18 251.807L315.774 252.721L315.789 252.727L315.804 252.734L316.18 251.807ZM321.3 254.847L320.652 255.608L322.3 257.012L322.3 254.847L321.3 254.847ZM321.3 251.487L321.3 250.487L320.3 250.487L320.3 251.487L321.3 251.487ZM327.86 251.487L328.86 251.487L328.86 250.487L327.86 250.487L327.86 251.487ZM329.3 287.007L328.745 287.839L328.772 287.857L328.799 287.872L329.3 287.007ZM332.58 287.887L333.545 288.149L333.888 286.887L332.58 286.887L332.58 287.887ZM331.06 293.487L331.06 294.487L331.825 294.487L332.025 293.749L331.06 293.487ZM321.78 287.247L322.749 286.999L322.217 284.925L320.968 286.663L321.78 287.247ZM316.74 291.967L317.295 292.799L317.3 292.796L316.74 291.967ZM316.1 286.207L316.568 287.091L316.578 287.085L316.588 287.08L316.1 286.207ZM320.66 282.447L321.433 283.082L321.66 282.805L321.66 282.447L320.66 282.447ZM320.66 260.127L321.66 260.127L321.66 259.608L321.236 259.309L320.66 260.127ZM315.86 257.727L315.509 258.663L315.526 258.67L315.544 258.676L315.86 257.727ZM303.62 258.767L304.175 259.599L304.18 259.596L303.62 258.767ZM299.06 264.207L299.959 264.646L299.963 264.638L299.06 264.207ZM299.06 280.287L298.158 280.718L298.162 280.726L299.06 280.287ZM303.7 285.727L303.14 286.556L303.148 286.561L303.156 286.566L303.7 285.727ZM308.74 294.047L308.74 293.047C305.452 293.047 302.49 292.215 299.829 290.558L299.3 291.407L298.772 292.256C301.764 294.119 305.095 295.047 308.74 295.047L308.74 294.047ZM299.3 291.407L299.829 290.558C297.164 288.899 295.014 286.556 293.382 283.496L292.5 283.967L291.618 284.438C293.4 287.778 295.783 290.395 298.772 292.256L299.3 291.407ZM292.5 283.967L293.392 283.514C291.822 280.426 291.02 276.774 291.02 272.527L290.02 272.527L289.02 272.527C289.02 277.027 289.871 281.001 291.609 284.42L292.5 283.967ZM290.02 272.527L291.02 272.527C291.02 268.503 291.819 264.925 293.395 261.774L292.5 261.327L291.606 260.88C289.875 264.342 289.02 268.231 289.02 272.527L290.02 272.527ZM292.5 261.327L293.389 261.786C295.021 258.622 297.228 256.143 300.008 254.324L299.46 253.487L298.912 252.65C295.826 254.671 293.392 257.418 291.612 260.868L292.5 261.327ZM299.46 253.487L300.011 254.321C302.822 252.464 306.041 251.527 309.7 251.527L309.7 250.527L309.7 249.527C305.679 249.527 302.071 250.563 298.909 252.653L299.46 253.487ZM309.7 250.527L309.7 251.527C311.98 251.527 313.999 251.932 315.774 252.721L316.18 251.807L316.586 250.893C314.521 249.975 312.22 249.527 309.7 249.527L309.7 250.527ZM316.18 251.807L315.804 252.734C317.691 253.498 319.303 254.459 320.652 255.608L321.3 254.847L321.949 254.086C320.418 252.781 318.616 251.715 316.556 250.88L316.18 251.807ZM321.3 254.847L322.3 254.847L322.3 251.487L321.3 251.487L320.3 251.487L320.3 254.847L321.3 254.847ZM321.3 251.487L321.3 252.487L327.86 252.487L327.86 251.487L327.86 250.487L321.3 250.487L321.3 251.487ZM327.86 251.487L326.86 251.487L326.86 283.007L327.86 283.007L328.86 283.007L328.86 251.487L327.86 251.487ZM327.86 283.007L326.86 283.007C326.86 285.118 327.349 286.908 328.745 287.839L329.3 287.007L329.855 286.175C329.331 285.826 328.86 284.949 328.86 283.007L327.86 283.007ZM329.3 287.007L328.799 287.872C329.965 288.547 331.231 288.887 332.58 288.887L332.58 287.887L332.58 286.887C331.582 286.887 330.662 286.64 329.801 286.142L329.3 287.007ZM332.58 287.887L331.615 287.625L330.095 293.225L331.06 293.487L332.025 293.749L333.545 288.149L332.58 287.887ZM331.06 293.487L331.06 292.487C328.627 292.487 326.789 291.992 325.458 291.097C324.146 290.215 323.231 288.879 322.749 286.999L321.78 287.247L320.811 287.495C321.396 289.774 322.561 291.559 324.342 292.757C326.105 293.942 328.373 294.487 331.06 294.487L331.06 293.487ZM321.78 287.247L320.968 286.663C319.824 288.255 318.237 289.75 316.181 291.138L316.74 291.967L317.3 292.796C319.51 291.304 321.283 289.652 322.592 287.831L321.78 287.247ZM316.74 291.967L316.185 291.135C314.313 292.383 311.855 293.047 308.74 293.047L308.74 294.047L308.74 295.047C312.132 295.047 315.008 294.324 317.295 292.799L316.74 291.967ZM310.34 287.647L310.34 288.647C312.532 288.647 314.612 288.126 316.568 287.091L316.1 286.207L315.632 285.323C313.961 286.208 312.202 286.647 310.34 286.647L310.34 287.647ZM316.1 286.207L316.588 287.08C318.502 286.01 320.121 284.679 321.433 283.082L320.66 282.447L319.887 281.812C318.746 283.202 317.325 284.377 315.612 285.334L316.1 286.207ZM320.66 282.447L321.66 282.447L321.66 260.127L320.66 260.127L319.66 260.127L319.66 282.447L320.66 282.447ZM320.66 260.127L321.236 259.309C319.712 258.237 318.024 257.394 316.176 256.778L315.86 257.727L315.544 258.676C317.217 259.233 318.728 259.99 320.085 260.945L320.66 260.127ZM315.86 257.727L316.211 256.791C314.386 256.106 312.454 255.767 310.42 255.767L310.42 256.767L310.42 257.767C312.227 257.767 313.921 258.068 315.509 258.663L315.86 257.727ZM310.42 256.767L310.42 255.767C307.676 255.767 305.212 256.485 303.06 257.938L303.62 258.767L304.18 259.596C305.975 258.382 308.044 257.767 310.42 257.767L310.42 256.767ZM303.62 258.767L303.065 257.935C300.977 259.327 299.345 261.288 298.158 263.776L299.06 264.207L299.963 264.638C301.015 262.433 302.423 260.767 304.175 259.599L303.62 258.767ZM299.06 264.207L298.162 263.768C296.962 266.224 296.38 269.073 296.38 272.287L297.38 272.287L298.38 272.287C298.38 269.314 298.918 266.777 299.959 264.646L299.06 264.207ZM297.38 272.287L296.38 272.287C296.38 275.401 296.965 278.218 298.158 280.718L299.06 280.287L299.963 279.856C298.916 277.663 298.38 275.147 298.38 272.287L297.38 272.287ZM299.06 280.287L298.162 280.726C299.353 283.165 301.011 285.117 303.14 286.556L303.7 285.727L304.26 284.898C302.442 283.67 301.008 281.996 299.959 279.848L299.06 280.287ZM303.7 285.727L303.156 286.566C305.299 287.956 307.702 288.647 310.34 288.647L310.34 287.647L310.34 286.647C308.071 286.647 306.048 286.058 304.244 284.888L303.7 285.727ZM342.195 293.087L341.195 293.087L341.195 294.087L342.195 294.087L342.195 293.087ZM342.195 251.487L342.195 250.487L341.195 250.487L341.195 251.487L342.195 251.487ZM349.155 251.487L350.155 251.487L350.155 250.487L349.155 250.487L349.155 251.487ZM349.155 258.447L348.155 258.447L348.155 261.75L349.987 259.002L349.155 258.447ZM354.835 252.847L355.381 253.685L355.388 253.681L355.394 253.676L354.835 252.847ZM370.755 252.927L370.145 253.72L370.155 253.727L370.755 252.927ZM375.235 259.327L374.283 259.632L374.911 261.597L376.064 259.886L375.235 259.327ZM381.075 253.087L380.478 252.285L380.469 252.292L381.075 253.087ZM399.635 254.847L398.839 255.452L398.845 255.46L398.851 255.468L399.635 254.847ZM402.995 293.087L402.995 294.087L403.995 294.087L403.995 293.087L402.995 293.087ZM395.795 293.087L394.795 293.087L394.795 294.087L395.795 294.087L395.795 293.087ZM393.795 259.567L392.989 260.159L392.994 260.165L392.998 260.171L393.795 259.567ZM381.555 259.567L382.211 260.322L382.212 260.321L381.555 259.567ZM376.195 265.807L375.355 265.265L375.195 265.513L375.195 265.807L376.195 265.807ZM376.195 293.087L376.195 294.087L377.195 294.087L377.195 293.087L376.195 293.087ZM368.995 293.087L367.995 293.087L367.995 294.087L368.995 294.087L368.995 293.087ZM366.995 259.567L366.189 260.159L366.194 260.165L366.198 260.171L366.995 259.567ZM354.835 259.487L355.469 260.26L355.475 260.255L355.481 260.25L354.835 259.487ZM349.395 265.567L348.56 265.017L348.395 265.267L348.395 265.567L349.395 265.567ZM349.395 293.087L349.395 294.087L350.395 294.087L350.395 293.087L349.395 293.087ZM342.195 293.087L343.195 293.087L343.195 251.487L342.195 251.487L341.195 251.487L341.195 293.087L342.195 293.087ZM342.195 251.487L342.195 252.487L349.155 252.487L349.155 251.487L349.155 250.487L342.195 250.487L342.195 251.487ZM349.155 251.487L348.155 251.487L348.155 258.447L349.155 258.447L350.155 258.447L350.155 251.487L349.155 251.487ZM349.155 258.447L349.987 259.002C351.404 256.876 353.199 255.105 355.381 253.685L354.835 252.847L354.289 252.009C351.884 253.575 349.893 255.537 348.323 257.892L349.155 258.447ZM354.835 252.847L355.394 253.676C357.512 252.248 359.928 251.527 362.675 251.527L362.675 250.527L362.675 249.527C359.555 249.527 356.745 250.353 354.276 252.018L354.835 252.847ZM362.675 250.527L362.675 251.527C365.82 251.527 368.281 252.286 370.145 253.72L370.755 252.927L371.365 252.134C369.069 250.368 366.144 249.527 362.675 249.527L362.675 250.527ZM370.755 252.927L370.155 253.727C372.114 255.196 373.489 257.152 374.283 259.632L375.235 259.327L376.188 259.022C375.274 256.168 373.663 253.858 371.355 252.127L370.755 252.927ZM375.235 259.327L376.064 259.886C377.66 257.518 379.532 255.52 381.681 253.882L381.075 253.087L380.469 252.292C378.138 254.068 376.117 256.229 374.406 258.768L375.235 259.327ZM381.075 253.087L381.672 253.889C383.764 252.332 386.371 251.527 389.555 251.527L389.555 250.527L389.555 249.527C386.019 249.527 382.973 250.428 380.478 252.285L381.075 253.087ZM389.555 250.527L389.555 251.527C393.863 251.527 396.888 252.883 398.839 255.452L399.635 254.847L400.432 254.242C398.008 251.051 394.313 249.527 389.555 249.527L389.555 250.527ZM399.635 254.847L398.851 255.468C400.917 258.075 401.995 261.543 401.995 265.967L402.995 265.967L403.995 265.967C403.995 261.217 402.833 257.273 400.419 254.226L399.635 254.847ZM402.995 265.967L401.995 265.967L401.995 293.087L402.995 293.087L403.995 293.087L403.995 265.967L402.995 265.967ZM402.995 293.087L402.995 292.087L395.795 292.087L395.795 293.087L395.795 294.087L402.995 294.087L402.995 293.087ZM395.795 293.087L396.795 293.087L396.795 266.527L395.795 266.527L394.795 266.527L394.795 293.087L395.795 293.087ZM395.795 266.527L396.795 266.527C396.795 263.495 396.092 260.943 394.592 258.963L393.795 259.567L392.998 260.171C394.165 261.711 394.795 263.798 394.795 266.527L395.795 266.527ZM393.795 259.567L394.601 258.975C393.07 256.892 390.924 255.847 388.275 255.847L388.275 256.847L388.275 257.847C390.32 257.847 391.854 258.615 392.989 260.159L393.795 259.567ZM388.275 256.847L388.275 255.847C385.598 255.847 383.131 256.866 380.898 258.813L381.555 259.567L382.212 260.321C384.139 258.641 386.153 257.847 388.275 257.847L388.275 256.847ZM381.555 259.567L380.899 258.812C378.797 260.638 376.949 262.791 375.355 265.265L376.195 265.807L377.036 266.349C378.534 264.023 380.26 262.016 382.211 260.322L381.555 259.567ZM376.195 265.807L375.195 265.807L375.195 293.087L376.195 293.087L377.195 293.087L377.195 265.807L376.195 265.807ZM376.195 293.087L376.195 292.087L368.995 292.087L368.995 293.087L368.995 294.087L376.195 294.087L376.195 293.087ZM368.995 293.087L369.995 293.087L369.995 266.527L368.995 266.527L367.995 266.527L367.995 293.087L368.995 293.087ZM368.995 266.527L369.995 266.527C369.995 263.495 369.292 260.943 367.792 258.963L366.995 259.567L366.198 260.171C367.365 261.711 367.995 263.798 367.995 266.527L368.995 266.527ZM366.995 259.567L367.801 258.975C366.27 256.892 364.124 255.847 361.475 255.847L361.475 256.847L361.475 257.847C363.52 257.847 365.054 258.615 366.189 260.159L366.995 259.567ZM361.475 256.847L361.475 255.847C358.855 255.847 356.419 256.837 354.189 258.724L354.835 259.487L355.481 260.25C357.411 258.617 359.402 257.847 361.475 257.847L361.475 256.847ZM354.835 259.487L354.201 258.714C352.04 260.487 350.16 262.59 348.56 265.017L349.395 265.567L350.23 266.117C351.724 263.851 353.471 261.9 355.469 260.26L354.835 259.487ZM349.395 265.567L348.395 265.567L348.395 293.087L349.395 293.087L350.395 293.087L350.395 265.567L349.395 265.567ZM349.395 293.087L349.395 292.087L342.195 292.087L342.195 293.087L342.195 294.087L349.395 294.087L349.395 293.087ZM415.398 293.087L414.398 293.087L414.398 294.087L415.398 294.087L415.398 293.087ZM415.398 251.487L415.398 250.487L414.398 250.487L414.398 251.487L415.398 251.487ZM422.598 251.487L423.598 251.487L423.598 250.487L422.598 250.487L422.598 251.487ZM422.598 293.087L422.598 294.087L423.598 294.087L423.598 293.087L422.598 293.087ZM415.398 242.847L414.672 243.535L414.682 243.544L414.691 243.554L415.398 242.847ZM415.318 235.647L414.611 234.94V234.94L415.318 235.647ZM422.518 235.807L421.792 236.495L421.811 236.514L421.831 236.533L422.518 235.807ZM422.678 243.007L423.385 243.714L423.395 243.704L423.405 243.694L422.678 243.007ZM415.398 293.087L416.398 293.087L416.398 251.487L415.398 251.487L414.398 251.487L414.398 293.087L415.398 293.087ZM415.398 251.487L415.398 252.487L422.598 252.487L422.598 251.487L422.598 250.487L415.398 250.487L415.398 251.487ZM422.598 251.487L421.598 251.487L421.598 293.087L422.598 293.087L423.598 293.087L423.598 251.487L422.598 251.487ZM422.598 293.087L422.598 292.087L415.398 292.087L415.398 293.087L415.398 294.087L422.598 294.087L422.598 293.087ZM418.998 244.367L418.998 243.367C417.887 243.367 416.938 242.973 416.105 242.14L415.398 242.847L414.691 243.554C415.885 244.748 417.337 245.367 418.998 245.367L418.998 244.367ZM415.398 242.847L416.124 242.159C415.331 241.322 414.958 240.391 414.958 239.327L413.958 239.327L412.958 239.327C412.958 240.929 413.545 242.345 414.672 243.535L415.398 242.847ZM413.958 239.327L414.958 239.327C414.958 237.987 415.344 237.036 416.025 236.354L415.318 235.647L414.611 234.94C413.479 236.072 412.958 237.573 412.958 239.327L413.958 239.327ZM415.318 235.647L416.025 236.354C416.707 235.673 417.658 235.287 418.998 235.287L418.998 234.287L418.998 233.287C417.245 233.287 415.743 233.808 414.611 234.94L415.318 235.647ZM418.998 234.287L418.998 235.287C420.108 235.287 421.02 235.679 421.792 236.495L422.518 235.807L423.244 235.119C422.097 233.908 420.662 233.287 418.998 233.287L418.998 234.287ZM422.518 235.807L421.831 236.533C422.646 237.305 423.038 238.217 423.038 239.327L424.038 239.327L425.038 239.327C425.038 237.664 424.417 236.228 423.206 235.081L422.518 235.807ZM424.038 239.327L423.038 239.327C423.038 240.601 422.659 241.571 421.951 242.32L422.678 243.007L423.405 243.694C424.511 242.523 425.038 241.039 425.038 239.327L424.038 239.327ZM422.678 243.007L421.971 242.3C421.29 242.981 420.338 243.367 418.998 243.367L418.998 244.367L418.998 245.367C420.752 245.367 422.254 244.846 423.385 243.714L422.678 243.007ZM462.758 293.807L461.98 294.435L462.625 295.235L463.407 294.568L462.758 293.807ZM448.758 276.447L449.537 275.819L448.757 274.853L447.979 275.82L448.758 276.447ZM434.918 293.647L434.26 294.4L435.044 295.086L435.697 294.274L434.918 293.647ZM429.798 289.167L429.04 288.515L428.393 289.266L429.14 289.92L429.798 289.167ZM444.598 271.967L445.356 272.619L445.919 271.966L445.355 271.313L444.598 271.967ZM430.358 255.487L429.701 254.733L428.951 255.387L429.602 256.141L430.358 255.487ZM435.958 250.607L436.749 249.995L436.1 249.157L435.301 249.853L435.958 250.607ZM448.838 267.247L448.047 267.859L448.838 268.88L449.629 267.859L448.838 267.247ZM461.478 250.927L462.126 250.165L461.329 249.487L460.688 250.315L461.478 250.927ZM466.838 255.487L467.598 256.137L468.25 255.375L467.486 254.725L466.838 255.487ZM452.998 271.647L452.239 270.996L451.678 271.651L452.243 272.302L452.998 271.647ZM468.198 289.167L468.847 289.928L469.614 289.273L468.954 288.512L468.198 289.167ZM462.758 293.807L463.537 293.179L449.537 275.819L448.758 276.447L447.98 277.075L461.98 294.435L462.758 293.807ZM448.758 276.447L447.979 275.82L434.139 293.02L434.918 293.647L435.697 294.274L449.537 277.074L448.758 276.447ZM434.918 293.647L435.577 292.894L430.457 288.414L429.798 289.167L429.14 289.92L434.26 294.4L434.918 293.647ZM429.798 289.167L430.556 289.819L445.356 272.619L444.598 271.967L443.84 271.315L429.04 288.515L429.798 289.167ZM444.598 271.967L445.355 271.313L431.115 254.833L430.358 255.487L429.602 256.141L443.842 272.621L444.598 271.967ZM430.358 255.487L431.015 256.241L436.615 251.361L435.958 250.607L435.301 249.853L429.701 254.733L430.358 255.487ZM435.958 250.607L435.167 251.219L448.047 267.859L448.838 267.247L449.629 266.635L436.749 249.995L435.958 250.607ZM448.838 267.247L449.629 267.859L462.269 251.539L461.478 250.927L460.688 250.315L448.048 266.635L448.838 267.247ZM461.478 250.927L460.83 251.689L466.19 256.249L466.838 255.487L467.486 254.725L462.126 250.165L461.478 250.927ZM466.838 255.487L466.079 254.836L452.239 270.996L452.998 271.647L453.758 272.297L467.598 256.137L466.838 255.487ZM452.998 271.647L452.243 272.302L467.443 289.822L468.198 289.167L468.954 288.512L453.754 270.992L452.998 271.647ZM468.198 289.167L467.549 288.406L462.109 293.046L462.758 293.807L463.407 294.568L468.847 289.928L468.198 289.167Z" fill="#023C65" mask="url(#path-13-outside-1_2463_2)"/>
</svg>
